<svg width="14" height="15" viewBox="0 0 14 15" fill="none" xmlns="http://www.w3.org/2000/svg">
<path d="M6.55859 13.9974H1.89193C1.15193 13.9974 0.558594 13.3974 0.558594 12.6641L0.56526 3.33073C0.56526 2.5974 1.15193 1.9974 1.89193 1.9974H2.55859V1.33073C2.55859 0.964063 2.85859 0.664062 3.22526 0.664062C3.59193 0.664062 3.89193 0.964063 3.89193 1.33073V1.9974H9.22526V1.33073C9.22526 0.964063 9.52526 0.664062 9.89193 0.664062C10.2586 0.664062 10.5586 0.964063 10.5586 1.33073V1.9974H11.2253C11.9586 1.9974 12.5586 2.5974 12.5586 3.33073V7.33073H11.2253V5.9974H1.89193V12.6641H6.55859V13.9974ZM13.3119 10.6574L13.7853 10.1841C14.0453 9.92406 14.0453 9.50406 13.7853 9.24406L13.3119 8.77073C13.0519 8.51073 12.6319 8.51073 12.3719 8.77073L11.8986 9.24406L13.3119 10.6574ZM12.8386 11.1307L9.49859 14.4707C9.37859 14.5907 9.20526 14.6641 9.03193 14.6641H8.22526C8.03859 14.6641 7.89193 14.5174 7.89193 14.3307V13.5241C7.89193 13.3441 7.96526 13.1774 8.08526 13.0507L11.4253 9.71073L12.8386 11.1307Z" fill="white"/>
</svg>
