<svg width="16" height="11" viewBox="0 0 16 11" fill="none" xmlns="http://www.w3.org/2000/svg">
<path d="M10.2694 5.66439C11.7427 5.66439 12.936 4.47105 12.936 2.99772C12.936 1.52439 11.7427 0.331055 10.2694 0.331055C8.79603 0.331055 7.6027 1.52439 7.6027 2.99772C7.6027 4.47105 8.79603 5.66439 10.2694 5.66439ZM4.26937 4.33105V2.99772C4.26937 2.63105 3.96937 2.33105 3.6027 2.33105C3.23604 2.33105 2.93604 2.63105 2.93604 2.99772V4.33105H1.6027C1.23604 4.33105 0.936035 4.63105 0.936035 4.99772C0.936035 5.36439 1.23604 5.66439 1.6027 5.66439H2.93604V6.99772C2.93604 7.36439 3.23604 7.66439 3.6027 7.66439C3.96937 7.66439 4.26937 7.36439 4.26937 6.99772V5.66439H5.6027C5.96937 5.66439 6.26937 5.36439 6.26937 4.99772C6.26937 4.63105 5.96937 4.33105 5.6027 4.33105H4.26937ZM10.2694 6.99772C8.48937 6.99772 4.93603 7.89105 4.93603 9.66439V10.3311C4.93603 10.6977 5.23603 10.9977 5.6027 10.9977H14.936C15.3027 10.9977 15.6027 10.6977 15.6027 10.3311V9.66439C15.6027 7.89105 12.0494 6.99772 10.2694 6.99772Z" fill="white"/>
</svg>
