<svg width="12" height="13" viewBox="0 0 12 13" fill="none" xmlns="http://www.w3.org/2000/svg">
<path d="M2.625 0.362305C1.1775 0.362305 0 1.5398 0 2.9873C0 4.4348 1.1775 5.6123 2.625 5.6123C4.0725 5.6123 5.25 4.4348 5.25 2.9873C5.25 1.5398 4.0725 0.362305 2.625 0.362305ZM2.625 4.1123C2.0025 4.1123 1.5 3.6098 1.5 2.9873C1.5 2.3648 2.0025 1.8623 2.625 1.8623C3.2475 1.8623 3.75 2.3648 3.75 2.9873C3.75 3.6098 3.2475 4.1123 2.625 4.1123ZM9.375 7.1123C7.9275 7.1123 6.75 8.2898 6.75 9.7373C6.75 11.1848 7.9275 12.3623 9.375 12.3623C10.8225 12.3623 12 11.1848 12 9.7373C12 8.2898 10.8225 7.1123 9.375 7.1123ZM9.375 10.8623C8.7525 10.8623 8.25 10.3598 8.25 9.7373C8.25 9.1148 8.7525 8.6123 9.375 8.6123C9.9975 8.6123 10.5 9.1148 10.5 9.7373C10.5 10.3598 9.9975 10.8623 9.375 10.8623ZM1.0575 12.3623L0 11.3048L10.9425 0.362305L12 1.4198L1.0575 12.3623Z" fill="#828282"/>
</svg>
