<svg width="16" height="13" viewBox="0 0 16 13" fill="none" xmlns="http://www.w3.org/2000/svg">
<path d="M14.4961 0.797852H2.49609C1.66359 0.797852 1.00359 1.46535 1.00359 2.29785L0.996094 11.2979C0.996094 12.1304 1.66359 12.7979 2.49609 12.7979H14.4961C15.3286 12.7979 15.9961 12.1304 15.9961 11.2979V2.29785C15.9961 1.46535 15.3286 0.797852 14.4961 0.797852ZM13.7461 11.2979H3.24609C2.83359 11.2979 2.49609 10.9604 2.49609 10.5479V6.79785H14.4961V10.5479C14.4961 10.9604 14.1586 11.2979 13.7461 11.2979ZM14.4961 3.79785H2.49609V3.04785C2.49609 2.63535 2.83359 2.29785 3.24609 2.29785H13.7461C14.1586 2.29785 14.4961 2.63535 14.4961 3.04785V3.79785Z" fill="white"/>
</svg>
