<svg width="16" height="16" viewBox="0 0 16 16" fill="none" xmlns="http://www.w3.org/2000/svg">
<path d="M1.37891 0.819214V2.31921H13.3789V0.819214H1.37891ZM1.37891 3.06921L0.628906 6.81921V8.31921H1.37891V12.8192H8.12891C8.09141 12.5642 8.06891 12.3017 8.06891 12.0317C8.06891 11.1167 8.35391 10.2167 8.87891 9.46671V8.31921H10.0339C10.7839 7.81671 11.6614 7.53921 12.5614 7.53921C13.0939 7.53921 13.6264 7.63671 14.1289 7.82421V6.81921L13.3789 3.06921H1.37891ZM2.87891 8.31921H7.37891V11.3192H2.87891V8.31921ZM11.8789 9.06921V11.3192H9.62891V12.8192H11.8789V15.0692H13.3789V12.8192H15.6289V11.3192H13.3789V9.06921" fill="#828282"/>
</svg>
