<svg width="16" height="15" viewBox="0 0 16 15" fill="none" xmlns="http://www.w3.org/2000/svg">
<path d="M15.4255 7.17578L13.7988 5.31578L14.0255 2.85578L11.6188 2.30911L10.3588 0.175781L8.09212 1.14911L5.82546 0.175781L4.56546 2.30245L2.15879 2.84245L2.38546 5.30911L0.758789 7.17578L2.38546 9.03578L2.15879 11.5024L4.56546 12.0491L5.82546 14.1758L8.09212 13.1958L10.3588 14.1691L11.6188 12.0424L14.0255 11.4958L13.7988 9.03578L15.4255 7.17578ZM6.34546 9.84912L4.75879 8.24911C4.49879 7.98911 4.49879 7.56911 4.75879 7.30911L4.80546 7.26245C5.06546 7.00245 5.49212 7.00245 5.75212 7.26245L6.82546 8.34245L10.2588 4.90245C10.5188 4.64245 10.9455 4.64245 11.2055 4.90245L11.2521 4.94911C11.5121 5.20911 11.5121 5.62911 11.2521 5.88911L7.30546 9.84912C7.03212 10.1091 6.61212 10.1091 6.34546 9.84912Z" fill="#27AE60"/>
</svg>
