<svg width="15" height="18" viewBox="0 0 15 18" fill="none" xmlns="http://www.w3.org/2000/svg">
<path d="M8.56354 0.537109H2.58854C1.67187 0.537109 0.921875 1.28711 0.921875 2.20378V15.5371C0.921875 16.4538 1.67187 17.2038 2.58854 17.2038H12.5885C13.5052 17.2038 14.2552 16.4538 14.2552 15.5371V6.22878C14.2552 5.78711 14.0802 5.36211 13.7635 5.05378L9.73854 1.02878C9.43021 0.712109 9.00521 0.537109 8.56354 0.537109ZM10.9219 11.3704C10.9219 13.3204 9.24687 14.8788 7.26354 14.6871C5.53021 14.5204 4.25521 12.9704 4.25521 11.2288V6.90378C4.25521 5.81211 5.03854 4.82044 6.12187 4.71211C7.37187 4.58711 8.42188 5.56211 8.42188 6.78711V10.5371C8.42188 10.9954 8.04688 11.3704 7.58854 11.3704C7.13021 11.3704 6.75521 10.9954 6.75521 10.5371V6.78711C6.75521 6.55378 6.57188 6.37044 6.33854 6.37044C6.10521 6.37044 5.92188 6.55378 5.92188 6.78711V11.2788C5.92188 12.1121 6.48854 12.8788 7.30521 13.0121C8.35521 13.1871 9.25521 12.3788 9.25521 11.3704V8.87044C9.25521 8.41211 9.63021 8.03711 10.0885 8.03711C10.5469 8.03711 10.9219 8.41211 10.9219 8.87044V11.3704ZM9.25521 4.70378V2.20378L12.5885 5.53711H10.0885C9.63021 5.53711 9.25521 5.16211 9.25521 4.70378Z" fill="#219653"/>
</svg>
