<svg width="19" height="19" viewBox="0 0 19 19" fill="none" xmlns="http://www.w3.org/2000/svg">
<path opacity="0.3" d="M16.2725 2.5H2.27246V6.5H16.2725V2.5Z" fill="#828282"/>
<path opacity="0.3" d="M16.2725 12.5H2.27246V16.5H16.2725V12.5Z" fill="#828282"/>
<path d="M16.2725 10.5H2.27246C1.17246 10.5 0.272461 11.4 0.272461 12.5V16.5C0.272461 17.6 1.17246 18.5 2.27246 18.5H16.2725C17.3725 18.5 18.2725 17.6 18.2725 16.5V12.5C18.2725 11.4 17.3725 10.5 16.2725 10.5ZM16.2725 16.5H2.27246V12.5H16.2725V16.5Z" fill="#828282"/>
<path d="M16.2725 0.5H2.27246C1.17246 0.5 0.272461 1.4 0.272461 2.5V6.5C0.272461 7.6 1.17246 8.5 2.27246 8.5H16.2725C17.3725 8.5 18.2725 7.6 18.2725 6.5V2.5C18.2725 1.4 17.3725 0.5 16.2725 0.5ZM16.2725 6.5H2.27246V2.5H16.2725V6.5Z" fill="#828282"/>
</svg>
