<svg width="16" height="13" viewBox="0 0 16 13" fill="none" xmlns="http://www.w3.org/2000/svg">
<path d="M14.6667 4.91768H11.4734L8.54675 0.537676C8.28008 0.144342 7.70008 0.144342 7.44008 0.537676L4.51341 4.91768H1.33341C0.966748 4.91768 0.666748 5.21768 0.666748 5.58434C0.666748 5.64434 0.673415 5.70434 0.693415 5.76434L2.38675 11.9443C2.54008 12.5043 3.05341 12.9177 3.66675 12.9177H12.3334C12.9467 12.9177 13.4601 12.5043 13.6201 11.9443L15.3134 5.76434L15.3334 5.58434C15.3334 5.21768 15.0334 4.91768 14.6667 4.91768ZM7.99341 2.11101L9.86675 4.91768H6.12008L7.99341 2.11101ZM8.00008 10.251C7.26675 10.251 6.66675 9.65101 6.66675 8.91768C6.66675 8.18434 7.26675 7.58434 8.00008 7.58434C8.73341 7.58434 9.33341 8.18434 9.33341 8.91768C9.33341 9.65101 8.73341 10.251 8.00008 10.251Z" fill="#0396FF"/>
</svg>
