<svg width="21" height="26" viewBox="0 0 21 26" fill="none" xmlns="http://www.w3.org/2000/svg">
<path d="M11.6344 0.350586H2.67188C1.29687 0.350586 0.171875 1.47559 0.171875 2.85059V22.8506C0.171875 24.2256 1.29687 25.3506 2.67188 25.3506H17.6719C19.0469 25.3506 20.1719 24.2256 20.1719 22.8506V8.88809C20.1719 8.22559 19.9094 7.58809 19.4344 7.12559L13.3969 1.08809C12.9344 0.613086 12.2969 0.350586 11.6344 0.350586ZM15.1719 16.6006C15.1719 19.5256 12.6594 21.8631 9.68437 21.5756C7.08437 21.3256 5.17188 19.0006 5.17188 16.3881V9.90059C5.17188 8.26309 6.34687 6.77559 7.97187 6.61309C9.84687 6.42559 11.4219 7.88809 11.4219 9.72559V15.3506C11.4219 16.0381 10.8594 16.6006 10.1719 16.6006C9.48437 16.6006 8.92188 16.0381 8.92188 15.3506V9.72559C8.92188 9.37559 8.64688 9.10059 8.29688 9.10059C7.94687 9.10059 7.67188 9.37559 7.67188 9.72559V16.4631C7.67188 17.7131 8.52187 18.8631 9.74687 19.0631C11.3219 19.3256 12.6719 18.1131 12.6719 16.6006V12.8506C12.6719 12.1631 13.2344 11.6006 13.9219 11.6006C14.6094 11.6006 15.1719 12.1631 15.1719 12.8506V16.6006ZM12.6719 6.60059V2.85059L17.6719 7.85059H13.9219C13.2344 7.85059 12.6719 7.28809 12.6719 6.60059Z" fill="#0396FF"/>
</svg>
