<svg width="15" height="16" viewBox="0 0 15 16" fill="none" xmlns="http://www.w3.org/2000/svg">
<path d="M11.9844 11.1401C11.4144 11.1401 10.9044 11.3651 10.5144 11.7176L5.16687 8.60508C5.20437 8.43258 5.23438 8.26008 5.23438 8.08008C5.23438 7.90008 5.20437 7.72758 5.16687 7.55508L10.4544 4.47258C10.8594 4.84758 11.3919 5.08008 11.9844 5.08008C13.2294 5.08008 14.2344 4.07508 14.2344 2.83008C14.2344 1.58508 13.2294 0.580078 11.9844 0.580078C10.7394 0.580078 9.73438 1.58508 9.73438 2.83008C9.73438 3.01008 9.76437 3.18258 9.80188 3.35508L4.51437 6.43758C4.10938 6.06258 3.57687 5.83008 2.98438 5.83008C1.73937 5.83008 0.734375 6.83508 0.734375 8.08008C0.734375 9.32508 1.73937 10.3301 2.98438 10.3301C3.57687 10.3301 4.10938 10.0976 4.51437 9.72258L9.85437 12.8426C9.81687 13.0001 9.79437 13.1651 9.79437 13.3301C9.79437 14.5376 10.7769 15.5201 11.9844 15.5201C13.1919 15.5201 14.1744 14.5376 14.1744 13.3301C14.1744 12.1226 13.1919 11.1401 11.9844 11.1401ZM11.9844 2.08008C12.3969 2.08008 12.7344 2.41758 12.7344 2.83008C12.7344 3.24258 12.3969 3.58008 11.9844 3.58008C11.5719 3.58008 11.2344 3.24258 11.2344 2.83008C11.2344 2.41758 11.5719 2.08008 11.9844 2.08008ZM2.98438 8.83008C2.57187 8.83008 2.23438 8.49258 2.23438 8.08008C2.23438 7.66758 2.57187 7.33008 2.98438 7.33008C3.39687 7.33008 3.73438 7.66758 3.73438 8.08008C3.73438 8.49258 3.39687 8.83008 2.98438 8.83008ZM11.9844 14.0951C11.5719 14.0951 11.2344 13.7576 11.2344 13.3451C11.2344 12.9326 11.5719 12.5951 11.9844 12.5951C12.3969 12.5951 12.7344 12.9326 12.7344 13.3451C12.7344 13.7576 12.3969 14.0951 11.9844 14.0951Z" fill="#0396FF"/>
</svg>
