<svg width="16" height="16" viewBox="0 0 16 16" fill="none" xmlns="http://www.w3.org/2000/svg">
<path d="M9.14062 4.08691H7.64062V7.08691H4.64062V8.58691H7.64062V11.5869H9.14062V8.58691H12.1406V7.08691H9.14062V4.08691ZM8.39062 0.336914C4.25812 0.336914 0.890625 3.70441 0.890625 7.83691C0.890625 11.9694 4.25812 15.3369 8.39062 15.3369C12.5231 15.3369 15.8906 11.9694 15.8906 7.83691C15.8906 3.70441 12.5231 0.336914 8.39062 0.336914ZM8.39062 13.8369C5.08313 13.8369 2.39062 11.1444 2.39062 7.83691C2.39062 4.52941 5.08313 1.83691 8.39062 1.83691C11.6981 1.83691 14.3906 4.52941 14.3906 7.83691C14.3906 11.1444 11.6981 13.8369 8.39062 13.8369Z" fill="#0396FF"/>
</svg>
