<svg width="16" height="16" viewBox="0 0 16 16" fill="none" xmlns="http://www.w3.org/2000/svg">
<path d="M4.64062 7.08691V8.58691H12.1406V7.08691H4.64062ZM8.39062 0.336914C4.25063 0.336914 0.890625 3.69691 0.890625 7.83691C0.890625 11.9769 4.25063 15.3369 8.39062 15.3369C12.5306 15.3369 15.8906 11.9769 15.8906 7.83691C15.8906 3.69691 12.5306 0.336914 8.39062 0.336914ZM8.39062 13.8369C5.08313 13.8369 2.39062 11.1444 2.39062 7.83691C2.39062 4.52941 5.08313 1.83691 8.39062 1.83691C11.6981 1.83691 14.3906 4.52941 14.3906 7.83691C14.3906 11.1444 11.6981 13.8369 8.39062 13.8369Z" fill="#0396FF"/>
</svg>
