<svg width="20" height="13" viewBox="0 0 20 13" fill="none" xmlns="http://www.w3.org/2000/svg">
<path d="M10.0856 1.76188C13.2439 1.76188 16.0606 3.53688 17.4356 6.34521C16.0606 9.15355 13.2439 10.9285 10.0856 10.9285C6.92728 10.9285 4.11061 9.15355 2.73561 6.34521C4.11061 3.53688 6.92728 1.76188 10.0856 1.76188ZM10.0856 0.0952148C5.91894 0.0952148 2.36061 2.68688 0.918945 6.34521C2.36061 10.0035 5.91894 12.5952 10.0856 12.5952C14.2523 12.5952 17.8106 10.0035 19.2523 6.34521C17.8106 2.68688 14.2523 0.0952148 10.0856 0.0952148ZM10.0856 4.26188C11.2356 4.26188 12.1689 5.19521 12.1689 6.34521C12.1689 7.49521 11.2356 8.42855 10.0856 8.42855C8.93561 8.42855 8.00228 7.49521 8.00228 6.34521C8.00228 5.19521 8.93561 4.26188 10.0856 4.26188ZM10.0856 2.59521C8.01894 2.59521 6.33561 4.27855 6.33561 6.34521C6.33561 8.41188 8.01894 10.0952 10.0856 10.0952C12.1523 10.0952 13.8356 8.41188 13.8356 6.34521C13.8356 4.27855 12.1523 2.59521 10.0856 2.59521Z" fill="#0396FF"/>
</svg>
