<svg width="15" height="14" viewBox="0 0 15 14" fill="none" xmlns="http://www.w3.org/2000/svg">
<path d="M9.99609 13.7969H8.49609V12.2969H9.99609V13.7969ZM8.49609 8.54688H6.99609V12.2969H8.49609V8.54688ZM14.4961 7.04688H12.9961V10.0469H14.4961V7.04688ZM12.9961 5.54688H11.4961V7.04688H12.9961V5.54688ZM3.99609 7.04688H2.49609V8.54688H3.99609V7.04688ZM2.49609 5.54688H0.996094V7.04688H2.49609V5.54688ZM7.74609 1.79688H9.24609V0.296875H7.74609V1.79688ZM2.12109 1.42188V3.67188H4.37109V1.42188H2.12109ZM5.49609 4.79688H0.996094V0.296875H5.49609V4.79688ZM2.12109 10.4219V12.6719H4.37109V10.4219H2.12109ZM5.49609 13.7969H0.996094V9.29688H5.49609V13.7969ZM11.1211 1.42188V3.67188H13.3711V1.42188H11.1211ZM14.4961 4.79688H9.99609V0.296875H14.4961V4.79688ZM12.9961 12.2969V10.0469H9.99609V11.5469H11.4961V13.7969H14.4961V12.2969H12.9961ZM11.4961 7.04688H8.49609V8.54688H11.4961V7.04688ZM8.49609 5.54688H3.99609V7.04688H5.49609V8.54688H6.99609V7.04688H8.49609V5.54688ZM9.24609 4.79688V3.29688H7.74609V1.79688H6.24609V4.79688H9.24609ZM3.80859 1.98438H2.68359V3.10938H3.80859V1.98438ZM3.80859 10.9844H2.68359V12.1094H3.80859V10.9844ZM12.8086 1.98438H11.6836V3.10938H12.8086V1.98438Z" fill="#0396FF"/>
</svg>
