<svg width="14" height="11" viewBox="0 0 14 11" fill="none" xmlns="http://www.w3.org/2000/svg">
<path d="M13.6668 4.24658V1.57992C13.6668 0.839915 13.0668 0.246582 12.3335 0.246582H1.66683C0.933496 0.246582 0.340163 0.839915 0.340163 1.57992V4.24658C1.0735 4.24658 1.66683 4.84658 1.66683 5.57992C1.66683 6.31325 1.0735 6.91325 0.333496 6.91325V9.57992C0.333496 10.3132 0.933496 10.9132 1.66683 10.9132H12.3335C13.0668 10.9132 13.6668 10.3132 13.6668 9.57992V6.91325C12.9335 6.91325 12.3335 6.31325 12.3335 5.57992C12.3335 4.84658 12.9335 4.24658 13.6668 4.24658ZM12.3335 3.27325C11.5402 3.73325 11.0002 4.59992 11.0002 5.57992C11.0002 6.55992 11.5402 7.42658 12.3335 7.88658V9.57992H1.66683V7.88658C2.46016 7.42658 3.00016 6.55992 3.00016 5.57992C3.00016 4.59325 2.46683 3.73325 1.6735 3.27325L1.66683 1.57992H12.3335V3.27325ZM6.3335 7.57992H7.66683V8.91325H6.3335V7.57992ZM6.3335 4.91325H7.66683V6.24658H6.3335V4.91325ZM6.3335 2.24658H7.66683V3.57992H6.3335V2.24658Z" fill="#0396FF"/>
</svg>
