<svg width="18" height="21" viewBox="0 0 18 21" fill="none" xmlns="http://www.w3.org/2000/svg">
<path d="M17.2494 5.52219L9.4494 1.02219C9.1494 0.822192 8.7494 0.822192 8.4494 1.02219L0.649414 5.52219C0.349414 5.72219 0.149414 6.0222 0.149414 6.3222V15.3222C0.149414 15.6222 0.349414 16.0222 0.649414 16.1222L8.4494 20.6222C8.6494 20.7222 8.7494 20.7222 8.9494 20.7222C9.1494 20.7222 9.2494 20.7222 9.4494 20.6222L17.2494 16.1222C17.5494 15.9222 17.7494 15.6222 17.7494 15.3222V6.3222C17.7494 6.0222 17.5494 5.62219 17.2494 5.52219ZM2.14941 14.7222V6.8222L8.9494 2.92219L15.7494 6.8222L8.9494 10.8222V18.7222L2.14941 14.7222Z" fill="#828282"/>
</svg>
