<svg width="18" height="13" viewBox="0 0 18 13" fill="none" xmlns="http://www.w3.org/2000/svg">
<path d="M15.209 3.0835H12.959V0.0834961H2.45898C1.63398 0.0834961 0.958984 0.758496 0.958984 1.5835V9.8335H2.45898C2.45898 11.0785 3.46398 12.0835 4.70898 12.0835C5.95398 12.0835 6.95898 11.0785 6.95898 9.8335H11.459C11.459 11.0785 12.464 12.0835 13.709 12.0835C14.954 12.0835 15.959 11.0785 15.959 9.8335H17.459V6.0835L15.209 3.0835ZM14.834 4.2085L16.304 6.0835H12.959V4.2085H14.834ZM4.70898 10.5835C4.29648 10.5835 3.95898 10.246 3.95898 9.8335C3.95898 9.421 4.29648 9.0835 4.70898 9.0835C5.12148 9.0835 5.45898 9.421 5.45898 9.8335C5.45898 10.246 5.12148 10.5835 4.70898 10.5835ZM6.37398 8.3335C5.96148 7.876 5.37648 7.5835 4.70898 7.5835C4.04148 7.5835 3.45648 7.876 3.04398 8.3335H2.45898V1.5835H11.459V8.3335H6.37398ZM13.709 10.5835C13.2965 10.5835 12.959 10.246 12.959 9.8335C12.959 9.421 13.2965 9.0835 13.709 9.0835C14.1215 9.0835 14.459 9.421 14.459 9.8335C14.459 10.246 14.1215 10.5835 13.709 10.5835Z" fill="#0396FF"/>
</svg>
