<svg width="15" height="16" viewBox="0 0 15 16" fill="none" xmlns="http://www.w3.org/2000/svg">
<path d="M7.06055 0.250488L2.93555 7.00049H11.1855L7.06055 0.250488ZM7.06055 3.13049L8.50805 5.50049H5.60555L7.06055 3.13049ZM11.1855 8.50049C9.31805 8.50049 7.81055 10.008 7.81055 11.8755C7.81055 13.743 9.31805 15.2505 11.1855 15.2505C13.053 15.2505 14.5605 13.743 14.5605 11.8755C14.5605 10.008 13.053 8.50049 11.1855 8.50049ZM11.1855 13.7505C10.1505 13.7505 9.31055 12.9105 9.31055 11.8755C9.31055 10.8405 10.1505 10.0005 11.1855 10.0005C12.2205 10.0005 13.0605 10.8405 13.0605 11.8755C13.0605 12.9105 12.2205 13.7505 11.1855 13.7505ZM6.31055 8.87549H0.310547V14.8755H6.31055V8.87549ZM4.81055 13.3755H1.81055V10.3755H4.81055V13.3755Z" fill="#BDBDBD"/>
</svg>
