<svg width="25" height="25" viewBox="0 0 25 25" fill="none" xmlns="http://www.w3.org/2000/svg">
<path d="M18.1594 9.66895L13.3594 14.4689L10.0594 11.1689C9.65937 10.7689 9.05938 10.7689 8.65938 11.1689L2.65938 17.1689C2.25938 17.5689 2.25938 18.1689 2.65938 18.5689C2.85938 18.7689 3.05937 18.8689 3.35938 18.8689C3.65937 18.8689 3.85938 18.7689 4.05938 18.5689L9.35938 13.2689L12.6594 16.5689C13.0594 16.9689 13.6594 16.9689 14.0594 16.5689L19.5594 11.0689L18.1594 9.66895Z" fill="#828282"/>
<path opacity="0.3" d="M22.3598 13.9691V7.86914C22.3598 7.26914 21.9598 6.86914 21.3598 6.86914H15.2598L22.3598 13.9691Z" fill="#828282"/>
</svg>
