<svg width="12" height="12" viewBox="0 0 12 12" fill="none" xmlns="http://www.w3.org/2000/svg">
<path d="M10.8385 0.629037C10.5135 0.304037 9.98848 0.304037 9.66348 0.629037L5.58848 4.6957L1.51348 0.620703C1.18848 0.295703 0.663477 0.295703 0.338477 0.620703C0.0134766 0.945703 0.0134766 1.4707 0.338477 1.7957L4.41348 5.8707L0.338477 9.9457C0.0134766 10.2707 0.0134766 10.7957 0.338477 11.1207C0.663477 11.4457 1.18848 11.4457 1.51348 11.1207L5.58848 7.0457L9.66348 11.1207C9.98848 11.4457 10.5135 11.4457 10.8385 11.1207C11.1635 10.7957 11.1635 10.2707 10.8385 9.9457L6.76348 5.8707L10.8385 1.7957C11.1551 1.47904 11.1551 0.945703 10.8385 0.629037Z" fill="#219653"/>
</svg>
