<svg width="16" height="14" viewBox="0 0 16 14" fill="none" xmlns="http://www.w3.org/2000/svg">
<path d="M14.4673 3.27934V1.56934C14.4673 0.744336 13.7923 0.0693359 12.9673 0.0693359H2.46729C1.63479 0.0693359 0.967285 0.744336 0.967285 1.56934V12.0693C0.967285 12.8943 1.63479 13.5693 2.46729 13.5693H12.9673C13.7923 13.5693 14.4673 12.8943 14.4673 12.0693V10.3593C14.9098 10.0968 15.2173 9.62434 15.2173 9.06934V4.56934C15.2173 4.01434 14.9098 3.54184 14.4673 3.27934ZM13.7173 4.56934V9.06934H8.46729V4.56934H13.7173ZM2.46729 12.0693V1.56934H12.9673V3.06934H8.46729C7.64229 3.06934 6.96729 3.74434 6.96729 4.56934V9.06934C6.96729 9.89434 7.64229 10.5693 8.46729 10.5693H12.9673V12.0693H2.46729Z" fill="#4F4F4F"/>
<path d="M10.7173 7.94434C11.3386 7.94434 11.8423 7.44066 11.8423 6.81934C11.8423 6.19802 11.3386 5.69434 10.7173 5.69434C10.096 5.69434 9.59229 6.19802 9.59229 6.81934C9.59229 7.44066 10.096 7.94434 10.7173 7.94434Z" fill="#4F4F4F"/>
</svg>
