<svg width="16" height="15" viewBox="0 0 16 15" fill="none" xmlns="http://www.w3.org/2000/svg">
<path d="M13.4003 2.76917C13.4003 2.17243 13.1632 1.60013 12.7413 1.17817C12.3193 0.756218 11.747 0.519165 11.1503 0.519165H3.05029C2.45356 0.519165 1.88126 0.756218 1.4593 1.17817C1.03735 1.60013 0.800293 2.17243 0.800293 2.76917V10.8692C0.800293 11.4659 1.03735 12.0382 1.4593 12.4602C1.88126 12.8821 2.45356 13.1192 3.05029 13.1192H6.74029C6.24695 12.1476 6.08602 11.041 6.28219 9.96916H4.13569C3.78469 9.96916 3.50029 9.66677 3.50029 9.29416C3.50029 8.92157 3.78469 8.61916 4.13569 8.61916H6.74029C6.99949 8.11246 7.34329 7.65616 7.75279 7.26917H4.13479C3.78469 7.26917 3.50029 6.96676 3.50029 6.59416C3.50029 6.22156 3.78469 5.91916 4.13569 5.91916H10.9649C10.9808 5.91885 10.9967 5.91945 11.0126 5.92096L11.1503 5.91916C11.9603 5.91916 12.7253 6.11357 13.4003 6.45917V2.76917ZM3.50029 3.89417C3.50029 3.52156 3.78469 3.21916 4.13569 3.21916H10.0649C10.4159 3.21916 10.7003 3.52156 10.7003 3.89417C10.7003 4.26676 10.4159 4.56916 10.0649 4.56916H4.13569C3.78469 4.56916 3.50029 4.26676 3.50029 3.89417ZM8.95879 8.11697C9.02361 8.34793 9.0416 8.58953 9.01172 8.82755C8.98183 9.06557 8.90467 9.29521 8.78477 9.50299C8.66487 9.71076 8.50464 9.89248 8.31351 10.0374C8.12238 10.1824 7.9042 10.2877 7.67179 10.3472L7.25689 10.4534C7.22709 10.7576 7.2301 11.0642 7.26589 11.3678L7.58089 11.4425C7.81943 11.499 8.0439 11.6037 8.24055 11.75C8.4372 11.8964 8.60188 12.0814 8.72449 12.2937C8.8471 12.5059 8.92506 12.741 8.95359 12.9845C8.98212 13.228 8.96061 13.4747 8.89039 13.7096L8.77699 14.0903C9.00829 14.273 9.26029 14.4296 9.52849 14.5556L9.82099 14.246C9.98937 14.0678 10.1924 13.9259 10.4175 13.829C10.6427 13.7321 10.8853 13.6822 11.1304 13.6823C11.3756 13.6825 11.6181 13.7327 11.8431 13.83C12.0682 13.9272 12.271 14.0694 12.4391 14.2478L12.7424 14.57C13.0061 14.4485 13.2536 14.2982 13.4822 14.1218L13.3418 13.6214C13.277 13.3904 13.259 13.1488 13.2889 12.9108C13.3188 12.6728 13.3959 12.4431 13.5158 12.2353C13.6357 12.0276 13.7959 11.8459 13.9871 11.7009C14.1782 11.5559 14.3964 11.4506 14.6288 11.3912L15.0437 11.285C15.0736 10.9804 15.0706 10.6736 15.0347 10.3697L14.7206 10.2959C14.4819 10.2395 14.2572 10.1348 14.0604 9.98846C13.8636 9.84207 13.6987 9.65701 13.576 9.44462C13.4533 9.23223 13.3753 8.997 13.3468 8.75337C13.3183 8.50974 13.3398 8.26285 13.4102 8.02787L13.5236 7.64896C13.2917 7.46516 13.0396 7.30845 12.7721 7.18186L12.4805 7.49146C12.3122 7.66983 12.1092 7.81191 11.8839 7.90899C11.6587 8.00607 11.416 8.05611 11.1708 8.05602C10.9255 8.05594 10.6829 8.00574 10.4578 7.9085C10.2326 7.81126 10.0297 7.66904 9.86149 7.49057L9.55819 7.16836C9.29572 7.28947 9.04758 7.4395 8.81839 7.61566L8.95879 8.11697ZM11.1503 11.7692C10.9116 11.7692 10.6827 11.6743 10.5139 11.5056C10.3451 11.3368 10.2503 11.1079 10.2503 10.8692C10.2503 10.6305 10.3451 10.4016 10.5139 10.2328C10.6827 10.064 10.9116 9.96916 11.1503 9.96916C11.389 9.96916 11.6179 10.064 11.7867 10.2328C11.9555 10.4016 12.0503 10.6305 12.0503 10.8692C12.0503 11.1079 11.9555 11.3368 11.7867 11.5056C11.6179 11.6743 11.389 11.7692 11.1503 11.7692Z" fill="#828282"/>
</svg>
