<svg width="72" height="71" viewBox="0 0 72 71" fill="none" xmlns="http://www.w3.org/2000/svg">
<path d="M32.563 56.7497H39.6463V49.6663H32.563V56.7497ZM36.1047 0.0830078C16.5547 0.0830078 0.687988 15.9497 0.687988 35.4997C0.687988 55.0497 16.5547 70.9163 36.1047 70.9163C55.6547 70.9163 71.5213 55.0497 71.5213 35.4997C71.5213 15.9497 55.6547 0.0830078 36.1047 0.0830078ZM36.1047 63.833C20.4859 63.833 7.77132 51.1184 7.77132 35.4997C7.77132 19.8809 20.4859 7.16634 36.1047 7.16634C51.7234 7.16634 64.438 19.8809 64.438 35.4997C64.438 51.1184 51.7234 63.833 36.1047 63.833ZM36.1047 14.2497C28.2776 14.2497 21.938 20.5893 21.938 28.4163H29.0213C29.0213 24.5205 32.2088 21.333 36.1047 21.333C40.0005 21.333 43.188 24.5205 43.188 28.4163C43.188 35.4997 32.563 34.6143 32.563 46.1247H39.6463C39.6463 38.1559 50.2713 37.2705 50.2713 28.4163C50.2713 20.5893 43.9317 14.2497 36.1047 14.2497Z" fill="#BDBDBD"/>
</svg>
