<svg width="11" height="10" viewBox="0 0 11 10" fill="none" xmlns="http://www.w3.org/2000/svg">
<path d="M9.88281 2.59898V1.45898C9.88281 0.908984 9.43281 0.458984 8.88281 0.458984H1.88281C1.32781 0.458984 0.882812 0.908984 0.882812 1.45898V8.45898C0.882812 9.00898 1.32781 9.45898 1.88281 9.45898H8.88281C9.43281 9.45898 9.88281 9.00898 9.88281 8.45898V7.31898C10.1778 7.14398 10.3828 6.82898 10.3828 6.45898V3.45898C10.3828 3.08898 10.1778 2.77398 9.88281 2.59898ZM9.38281 3.45898V6.45898H5.88281V3.45898H9.38281ZM1.88281 8.45898V1.45898H8.88281V2.45898H5.88281C5.33281 2.45898 4.88281 2.90898 4.88281 3.45898V6.45898C4.88281 7.00898 5.33281 7.45898 5.88281 7.45898H8.88281V8.45898H1.88281Z" fill="#BDBDBD"/>
<path d="M7.38281 5.70898C7.79703 5.70898 8.13281 5.3732 8.13281 4.95898C8.13281 4.54477 7.79703 4.20898 7.38281 4.20898C6.9686 4.20898 6.63281 4.54477 6.63281 4.95898C6.63281 5.3732 6.9686 5.70898 7.38281 5.70898Z" fill="#BDBDBD"/>
</svg>
