<svg width="11" height="10" viewBox="0 0 11 10" fill="none" xmlns="http://www.w3.org/2000/svg">
<path d="M6.17285 3.22945C6.59785 3.07945 6.93785 2.73945 7.08785 2.31445H8.67285L7.17285 5.81445C7.17285 6.64445 7.95785 7.31445 8.92285 7.31445C9.88785 7.31445 10.6729 6.64445 10.6729 5.81445L9.17285 2.31445H10.1729V1.31445H7.08785C6.88285 0.729453 6.32785 0.314453 5.67285 0.314453C5.01785 0.314453 4.46285 0.729453 4.25785 1.31445H1.17285V2.31445H2.17285L0.672852 5.81445C0.672852 6.64445 1.45785 7.31445 2.42285 7.31445C3.38785 7.31445 4.17285 6.64445 4.17285 5.81445L2.67285 2.31445H4.25785C4.40785 2.73945 4.74785 3.07945 5.17285 3.22945V8.81445H0.672852V9.81445H10.6729V8.81445H6.17285V3.22945ZM9.85785 5.81445H7.98785L8.92285 3.63445L9.85785 5.81445ZM3.35785 5.81445H1.48785L2.42285 3.63445L3.35785 5.81445ZM5.67285 2.31445C5.39785 2.31445 5.17285 2.08945 5.17285 1.81445C5.17285 1.53945 5.39785 1.31445 5.67285 1.31445C5.94785 1.31445 6.17285 1.53945 6.17285 1.81445C6.17285 2.08945 5.94785 2.31445 5.67285 2.31445Z" fill="#4F4F4F"/>
</svg>
