<svg width="20" height="21" viewBox="0 0 20 21" fill="none" xmlns="http://www.w3.org/2000/svg">
<path d="M9.75635 0.786133L4.25635 9.78613H15.2563L9.75635 0.786133ZM9.75635 4.62613L11.6863 7.78613H7.81635L9.75635 4.62613ZM15.2563 11.7861C12.7663 11.7861 10.7563 13.7961 10.7563 16.2861C10.7563 18.7761 12.7663 20.7861 15.2563 20.7861C17.7463 20.7861 19.7563 18.7761 19.7563 16.2861C19.7563 13.7961 17.7463 11.7861 15.2563 11.7861ZM15.2563 18.7861C13.8763 18.7861 12.7563 17.6661 12.7563 16.2861C12.7563 14.9061 13.8763 13.7861 15.2563 13.7861C16.6363 13.7861 17.7563 14.9061 17.7563 16.2861C17.7563 17.6661 16.6363 18.7861 15.2563 18.7861ZM8.75635 12.2861H0.756348V20.2861H8.75635V12.2861ZM6.75635 18.2861H2.75635V14.2861H6.75635V18.2861Z" fill="#828282"/>
</svg>
