<svg width="23" height="20" viewBox="0 0 23 20" fill="none" xmlns="http://www.w3.org/2000/svg">
<path d="M21.3105 7.78615H16.5205L12.1405 1.22615C11.9505 0.946152 11.6305 0.806152 11.3105 0.806152C10.9905 0.806152 10.6705 0.946152 10.4805 1.23615L6.10055 7.78615H1.31055C0.760547 7.78615 0.310547 8.23615 0.310547 8.78615C0.310547 8.87615 0.320547 8.96615 0.350547 9.05615L2.89055 18.3262C3.12055 19.1662 3.89055 19.7862 4.81055 19.7862H17.8105C18.7305 19.7862 19.5005 19.1662 19.7405 18.3262L22.2805 9.05615L22.3105 8.78615C22.3105 8.23615 21.8605 7.78615 21.3105 7.78615ZM11.3105 3.58615L14.1105 7.78615H8.51055L11.3105 3.58615ZM17.8105 17.7862L4.82055 17.7962L2.62055 9.78615H20.0105L17.8105 17.7862ZM11.3105 11.7862C10.2105 11.7862 9.31055 12.6862 9.31055 13.7862C9.31055 14.8862 10.2105 15.7862 11.3105 15.7862C12.4105 15.7862 13.3105 14.8862 13.3105 13.7862C13.3105 12.6862 12.4105 11.7862 11.3105 11.7862Z" fill="#828282"/>
</svg>
