<svg width="19" height="21" viewBox="0 0 19 21" fill="none" xmlns="http://www.w3.org/2000/svg">
<path d="M4.82324 9.42188H6.82324V11.4219H4.82324V9.42188ZM16.8232 2.42188H15.8232V0.421875H13.8232V2.42188H5.82324V0.421875H3.82324V2.42188H2.82324C1.71324 2.42188 0.833242 3.32188 0.833242 4.42188L0.823242 18.4219C0.823242 19.5219 1.71324 20.4219 2.82324 20.4219H16.8232C17.9232 20.4219 18.8232 19.5219 18.8232 18.4219V4.42188C18.8232 3.32188 17.9232 2.42188 16.8232 2.42188ZM16.8232 18.4219H2.82324V8.42188H16.8232V18.4219ZM16.8232 6.42188H2.82324V4.42188H16.8232V6.42188ZM12.8232 9.42188H14.8232V11.4219H12.8232V9.42188ZM8.82324 9.42188H10.8232V11.4219H8.82324V9.42188Z" fill="#6FCF97"/>
</svg>
