<svg width="16" height="16" viewBox="0 0 16 16" fill="none" xmlns="http://www.w3.org/2000/svg">
<path d="M7.75879 1.13538C8.27763 1.13534 8.77681 1.33385 9.15393 1.69017C9.53106 2.04649 9.75754 2.53362 9.78691 3.05163L9.79004 3.16663H13.0713C13.1901 3.16666 13.3044 3.21178 13.3912 3.29286C13.4779 3.37394 13.5307 3.48494 13.5388 3.60343C13.5469 3.72191 13.5097 3.83906 13.4348 3.93119C13.3598 4.02332 13.2527 4.08356 13.135 4.09975L13.0713 4.10413H12.5738L11.7738 12.2416C11.7337 12.6473 11.5507 13.0256 11.2575 13.3088C10.9643 13.592 10.58 13.7618 10.1732 13.7879L10.0632 13.7916H5.45441C5.04658 13.7916 4.65203 13.6466 4.34129 13.3824C4.03055 13.1183 3.82386 12.7523 3.75816 12.3498L3.74379 12.241L2.94316 4.10413H2.44629C2.33302 4.10412 2.22358 4.0631 2.13821 3.98865C2.05284 3.91419 1.99732 3.81135 1.98191 3.69913L1.97754 3.63538C1.97754 3.5221 2.01857 3.41266 2.09302 3.32729C2.16747 3.24193 2.27032 3.18641 2.38254 3.171L2.44629 3.16663H5.72754C5.72754 2.62791 5.94155 2.11125 6.32248 1.73032C6.70341 1.34938 7.22007 1.13538 7.75879 1.13538ZM11.6319 4.10413H3.88504L4.67691 12.1491C4.69445 12.3286 4.77355 12.4965 4.9008 12.6244C5.02805 12.7522 5.19561 12.832 5.37504 12.8504L5.45441 12.8541H10.0632C10.4382 12.8541 10.7563 12.5885 10.8288 12.2279L10.8413 12.1491L11.6313 4.10413H11.6319ZM8.85254 5.82288C8.96581 5.82288 9.07525 5.8639 9.16062 5.93836C9.24599 6.01281 9.30151 6.11566 9.31691 6.22788L9.32129 6.29163V10.6666C9.32125 10.7854 9.27614 10.8997 9.19506 10.9865C9.11398 11.0733 9.00298 11.126 8.88449 11.1341C8.766 11.1422 8.64886 11.1051 8.55673 11.0301C8.4646 10.9552 8.40435 10.848 8.38816 10.7304L8.38379 10.6666V6.29163C8.38379 6.16731 8.43318 6.04808 8.52108 5.96017C8.60899 5.87226 8.72822 5.82288 8.85254 5.82288ZM6.66504 5.82288C6.77831 5.82288 6.88775 5.8639 6.97312 5.93836C7.05849 6.01281 7.11401 6.11566 7.12941 6.22788L7.13379 6.29163V10.6666C7.13375 10.7854 7.08864 10.8997 7.00756 10.9865C6.92648 11.0733 6.81548 11.126 6.69699 11.1341C6.5785 11.1422 6.46136 11.1051 6.36923 11.0301C6.2771 10.9552 6.21685 10.848 6.20066 10.7304L6.19629 10.6666V6.29163C6.19629 6.16731 6.24568 6.04808 6.33358 5.96017C6.42149 5.87226 6.54072 5.82288 6.66504 5.82288ZM7.75879 2.07288C7.4843 2.07289 7.21984 2.17611 7.01792 2.36205C6.816 2.54799 6.69138 2.80306 6.66879 3.07663L6.66504 3.16663H8.85254C8.85254 2.87655 8.73731 2.59835 8.53219 2.39323C8.32707 2.18811 8.04887 2.07288 7.75879 2.07288Z" fill="#4F4F4F"/>
</svg>
