<svg width="18" height="13" viewBox="0 0 18 13" fill="none" xmlns="http://www.w3.org/2000/svg">
<path d="M15.2095 3.5H12.9595V0.5H2.45947C1.63447 0.5 0.959473 1.175 0.959473 2V10.25H2.45947C2.45947 11.495 3.46447 12.5 4.70947 12.5C5.95447 12.5 6.95947 11.495 6.95947 10.25H11.4595C11.4595 11.495 12.4645 12.5 13.7095 12.5C14.9545 12.5 15.9595 11.495 15.9595 10.25H17.4595V6.5L15.2095 3.5ZM14.8345 4.625L16.3045 6.5H12.9595V4.625H14.8345ZM4.70947 11C4.29697 11 3.95947 10.6625 3.95947 10.25C3.95947 9.8375 4.29697 9.5 4.70947 9.5C5.12197 9.5 5.45947 9.8375 5.45947 10.25C5.45947 10.6625 5.12197 11 4.70947 11ZM6.37447 8.75C5.96197 8.2925 5.37697 8 4.70947 8C4.04197 8 3.45697 8.2925 3.04447 8.75H2.45947V2H11.4595V8.75H6.37447ZM13.7095 11C13.297 11 12.9595 10.6625 12.9595 10.25C12.9595 9.8375 13.297 9.5 13.7095 9.5C14.122 9.5 14.4595 9.8375 14.4595 10.25C14.4595 10.6625 14.122 11 13.7095 11Z" fill="#828282"/>
</svg>
