<svg width="21" height="19" viewBox="0 0 21 19" fill="none" xmlns="http://www.w3.org/2000/svg">
<path d="M20.6827 6.67613L19.6327 2.30613C19.4127 1.40613 18.6327 0.786133 17.7227 0.786133H3.83272C2.93272 0.786133 2.14272 1.41613 1.93272 2.30613L0.882721 6.67613C0.642721 7.69613 0.862722 8.73613 1.50272 9.55613C1.58272 9.66613 1.69272 9.74613 1.78272 9.84613V16.7861C1.78272 17.8861 2.68272 18.7861 3.78272 18.7861H17.7827C18.8827 18.7861 19.7827 17.8861 19.7827 16.7861V9.84613C19.8727 9.75613 19.9827 9.66613 20.0627 9.56613C20.7027 8.74613 20.9327 7.69613 20.6827 6.67613ZM11.7827 2.78613H13.7427L14.2827 7.30613C14.3327 7.69613 14.2127 8.08613 13.9527 8.37613C13.7327 8.63613 13.4127 8.78613 13.0027 8.78613C12.3327 8.78613 11.7827 8.19613 11.7827 7.47613V2.78613ZM7.27272 7.30613L7.82272 2.78613H9.78272V7.47613C9.78272 8.19613 9.23272 8.78613 8.49272 8.78613C8.15272 8.78613 7.84272 8.63613 7.60272 8.37613C7.35272 8.08613 7.23272 7.69613 7.27272 7.30613ZM3.07272 8.31613C2.81272 7.98613 2.72272 7.55613 2.82272 7.14613L3.83272 2.78613H5.80272L5.22272 7.64613C5.14272 8.29613 4.62272 8.78613 4.01272 8.78613C3.51272 8.78613 3.21272 8.49613 3.07272 8.31613ZM17.7827 16.7861H3.78272V10.7561C3.86272 10.7661 3.93272 10.7861 4.01272 10.7861C4.88272 10.7861 5.67272 10.4261 6.25272 9.83613C6.85272 10.4361 7.65272 10.7861 8.56272 10.7861C9.43272 10.7861 10.2127 10.4261 10.7927 9.85613C11.3827 10.4261 12.1827 10.7861 13.0827 10.7861C13.9227 10.7861 14.7227 10.4361 15.3227 9.83613C15.9027 10.4261 16.6927 10.7861 17.5627 10.7861C17.6427 10.7861 17.7127 10.7661 17.7927 10.7561V16.7861H17.7827ZM18.4927 8.31613C18.3527 8.49613 18.0527 8.78613 17.5527 8.78613C16.9427 8.78613 16.4127 8.29613 16.3427 7.64613L15.7627 2.78613L17.6927 2.77613L18.7427 7.14613C18.8427 7.56613 18.7527 7.99613 18.4927 8.31613Z" fill="#828282"/>
</svg>
