<svg width="11" height="10" viewBox="0 0 11 10" fill="none" xmlns="http://www.w3.org/2000/svg">
<path d="M9.3418 2.53125H7.3418V1.53125L6.3418 0.53125H4.3418L3.3418 1.53125V2.53125H1.3418C0.791797 2.53125 0.341797 2.98125 0.341797 3.53125V6.03125C0.341797 6.40625 0.541797 6.72125 0.841797 6.89625V8.53125C0.841797 9.08625 1.2868 9.53125 1.8418 9.53125H8.8418C9.3968 9.53125 9.8418 9.08625 9.8418 8.53125V6.89125C10.1368 6.71625 10.3418 6.39625 10.3418 6.03125V3.53125C10.3418 2.98125 9.8918 2.53125 9.3418 2.53125ZM4.3418 1.53125H6.3418V2.53125H4.3418V1.53125ZM1.3418 3.53125H9.3418V6.03125H6.8418V4.53125H3.8418V6.03125H1.3418V3.53125ZM5.8418 6.53125H4.8418V5.53125H5.8418V6.53125ZM8.8418 8.53125H1.8418V7.03125H3.8418V7.53125H6.8418V7.03125H8.8418V8.53125Z" fill="#BDBDBD"/>
</svg>
