<svg width="21" height="21" viewBox="0 0 21 21" fill="none" xmlns="http://www.w3.org/2000/svg">
<path opacity="0.3" d="M10.8496 2.42188C6.43961 2.42188 2.84961 6.01188 2.84961 10.4219C2.84961 14.8319 6.43961 18.4219 10.8496 18.4219C15.2596 18.4219 18.8496 14.8319 18.8496 10.4219C18.8496 6.01188 15.2596 2.42188 10.8496 2.42188ZM11.7296 16.1819V17.4219H9.97961V16.1319C9.23961 15.9519 7.58961 15.3619 6.95961 13.1719L8.60961 12.5019C8.66961 12.7219 9.18961 14.5919 11.0096 14.5919C11.9396 14.5919 12.9896 14.1119 12.9896 12.9819C12.9896 12.0219 12.2896 11.5219 10.7096 10.9519C9.60961 10.5619 7.35961 9.92188 7.35961 7.64188C7.35961 7.54188 7.36961 5.24188 9.97961 4.68188V3.42188H11.7296V4.66187C13.5696 4.98187 14.2396 6.45188 14.3896 6.89188L12.8096 7.56188C12.6996 7.21188 12.2196 6.22188 10.9096 6.22188C10.2096 6.22188 9.09961 6.59187 9.09961 7.61187C9.09961 8.56187 9.95961 8.92188 11.7396 9.51188C14.1396 10.3419 14.7496 11.5619 14.7496 12.9619C14.7496 15.5919 12.2496 16.0919 11.7296 16.1819Z" fill="#6FCF97"/>
<path d="M11.7397 9.52188C9.95971 8.93188 9.09971 8.56187 9.09971 7.62187C9.09971 6.60187 10.2097 6.23187 10.9097 6.23187C12.2197 6.23187 12.6997 7.22187 12.8097 7.57187L14.3897 6.90187C14.2397 6.46187 13.5697 4.99187 11.7297 4.67188V3.42188H9.97971V4.68188C7.37971 5.24188 7.35971 7.53188 7.35971 7.64188C7.35971 9.91188 9.60971 10.5519 10.7097 10.9519C12.2897 11.5119 12.9897 12.0219 12.9897 12.9819C12.9897 14.1119 11.9397 14.5919 11.0097 14.5919C9.18971 14.5919 8.66971 12.7219 8.60971 12.5019L6.94971 13.1719C7.57971 15.3619 9.22971 15.9519 9.96971 16.1319V17.4219H11.7197V16.1819C12.2397 16.0919 14.7397 15.5919 14.7397 12.9619C14.7497 11.5719 14.1397 10.3519 11.7397 9.52188Z" fill="#6FCF97"/>
<path d="M10.8496 0.421875C5.32961 0.421875 0.849609 4.90188 0.849609 10.4219C0.849609 15.9419 5.32961 20.4219 10.8496 20.4219C16.3696 20.4219 20.8496 15.9419 20.8496 10.4219C20.8496 4.90188 16.3696 0.421875 10.8496 0.421875ZM10.8496 18.4219C6.43961 18.4219 2.84961 14.8319 2.84961 10.4219C2.84961 6.01188 6.43961 2.42188 10.8496 2.42188C15.2596 2.42188 18.8496 6.01188 18.8496 10.4219C18.8496 14.8319 15.2596 18.4219 10.8496 18.4219Z" fill="#6FCF97"/>
</svg>
