<svg width="11" height="11" viewBox="0 0 11 11" fill="none" xmlns="http://www.w3.org/2000/svg">
<path d="M5.63184 0.958984C2.87184 0.958984 0.631836 3.19898 0.631836 5.95898C0.631836 8.71898 2.87184 10.959 5.63184 10.959C8.39184 10.959 10.6318 8.71898 10.6318 5.95898C10.6318 3.19898 8.39184 0.958984 5.63184 0.958984ZM5.63184 9.95898C3.42684 9.95898 1.63184 8.16398 1.63184 5.95898C1.63184 3.75398 3.42684 1.95898 5.63184 1.95898C7.83684 1.95898 9.63184 3.75398 9.63184 5.95898C9.63184 8.16398 7.83684 9.95898 5.63184 9.95898ZM6.07684 5.50898C5.18684 5.21398 4.75684 5.02898 4.75684 4.55898C4.75684 4.04898 5.31184 3.86398 5.66184 3.86398C6.31684 3.86398 6.55684 4.35898 6.61184 4.53398L7.40184 4.19898C7.32684 3.97898 6.99184 3.24398 6.07184 3.08398V2.45898H5.19684V3.08898C3.89684 3.36898 3.88684 4.51398 3.88684 4.56898C3.88684 5.70398 5.01184 6.02398 5.56184 6.22398C6.35184 6.50398 6.70184 6.75898 6.70184 7.23898C6.70184 7.80398 6.17684 8.04398 5.71184 8.04398C4.80184 8.04398 4.54184 7.10898 4.51184 6.99898L3.68184 7.33398C3.99684 8.42898 4.82184 8.72398 5.19184 8.81398V9.45898H6.06684V8.83898C6.32684 8.79398 7.57684 8.54398 7.57684 7.22898C7.58184 6.53398 7.27684 5.92398 6.07684 5.50898Z" fill="#BDBDBD"/>
</svg>
