<svg width="25" height="24" viewBox="0 0 25 24" fill="none" xmlns="http://www.w3.org/2000/svg">
<path d="M17.353 6C17.353 8.76142 15.1144 11 12.353 11C9.5916 11 7.35303 8.76142 7.35303 6C7.35303 3.23858 9.5916 1 12.353 1C15.1144 1 17.353 3.23858 17.353 6Z" fill="#828282"/>
<path opacity="0.25" fill-rule="evenodd" clip-rule="evenodd" d="M19.171 14.1244C18.5546 13.4098 17.4959 13.4466 16.668 13.8997C15.3868 14.6009 13.9165 14.9996 12.353 14.9996C10.7896 14.9996 9.31921 14.6009 8.03808 13.8997C7.21019 13.4466 6.15144 13.4098 5.53503 14.1244C4.17525 15.701 3.35303 17.7543 3.35303 19.9996V20.9996C3.35303 22.1042 4.24846 22.9996 5.35303 22.9996H19.353C20.4576 22.9996 21.353 22.1042 21.353 20.9996V19.9996C21.353 17.7543 20.5308 15.701 19.171 14.1244Z" fill="#828282"/>
</svg>
