<svg width="10" height="10" viewBox="0 0 10 10" fill="none" xmlns="http://www.w3.org/2000/svg">
<path d="M0.98793 2.55906L3.90543 5.47656L0.98793 8.39406C0.69543 8.68656 0.69543 9.15906 0.98793 9.45156C1.28043 9.74406 1.75293 9.74406 2.04543 9.45156L5.48793 6.00906C5.78043 5.71656 5.78043 5.24406 5.48793 4.95156L2.04543 1.50156C1.75293 1.20906 1.28043 1.20906 0.98793 1.50156C0.70293 1.79406 0.70293 2.27406 0.98793 2.55906ZM9.02043 0.976562C9.43293 0.976562 9.77043 1.31406 9.77043 1.72656V9.22656C9.77043 9.63906 9.43293 9.97656 9.02043 9.97656C8.60793 9.97656 8.27043 9.63906 8.27043 9.22656V1.72656C8.27043 1.31406 8.60793 0.976562 9.02043 0.976562Z" fill="#27AE60"/>
</svg>
