<svg width="16" height="16" viewBox="0 0 16 16" fill="none" xmlns="http://www.w3.org/2000/svg">
<path d="M12.5964 13.1651H3.84638C3.68062 13.1651 3.52165 13.2309 3.40444 13.3481C3.28723 13.4653 3.22138 13.6243 3.22138 13.7901C3.22138 13.9558 3.28723 14.1148 3.40444 14.232C3.52165 14.3492 3.68062 14.4151 3.84638 14.4151H12.5964C12.7621 14.4151 12.9211 14.3492 13.0383 14.232C13.1555 14.1148 13.2214 13.9558 13.2214 13.7901C13.2214 13.6243 13.1555 13.4653 13.0383 13.3481C12.9211 13.2309 12.7621 13.1651 12.5964 13.1651ZM3.84638 11.9151H3.90263L6.50888 11.6776C6.79438 11.6491 7.0614 11.5233 7.26513 11.3213L12.8901 5.69632C13.1085 5.46568 13.2264 5.15789 13.2182 4.84041C13.21 4.52292 13.0763 4.22164 12.8464 4.00257L11.1339 2.29007C10.9104 2.08013 10.6175 1.95967 10.311 1.9516C10.0044 1.94354 9.70562 2.04843 9.47138 2.24632L3.84638 7.87132C3.64436 8.07505 3.51857 8.34207 3.49013 8.62757L3.22138 11.2338C3.21296 11.3254 3.22484 11.4176 3.25617 11.5041C3.28749 11.5905 3.3375 11.6689 3.40263 11.7338C3.46103 11.7917 3.53029 11.8376 3.60644 11.8687C3.68258 11.8998 3.76412 11.9155 3.84638 11.9151ZM10.2651 3.16507L11.9714 4.87132L10.7214 6.09007L9.04638 4.41507L10.2651 3.16507ZM4.70263 8.73382L8.22138 5.24007L9.90888 6.92757L6.40888 10.4276L4.53388 10.6026L4.70263 8.73382Z" fill="#828282"/>
</svg>
