<svg width="14" height="14" viewBox="0 0 14 14" fill="none" xmlns="http://www.w3.org/2000/svg">
<path d="M12.537 3.09995L12.8637 2.39328L13.5704 2.06661C13.8304 1.94661 13.8304 1.57995 13.5704 1.45995L12.8637 1.13328L12.537 0.433281C12.417 0.173281 12.0504 0.173281 11.9304 0.433281L11.6037 1.13995L10.9037 1.46661C10.6437 1.58661 10.6437 1.95328 10.9037 2.07328L11.6104 2.39995L11.937 3.09995C12.0504 3.35995 12.4237 3.35995 12.537 3.09995Z" fill="#BDBDBD"/>
<path d="M4.87035 3.09995L5.19702 2.39328L5.90369 2.06661C6.16369 1.94661 6.16369 1.57995 5.90369 1.45995L5.19702 1.13995L4.87035 0.433281C4.75702 0.173281 4.38369 0.173281 4.27035 0.433281L3.94369 1.13995L3.23702 1.46661C2.97702 1.58661 2.97702 1.95328 3.23702 2.07328L3.94369 2.39995L4.27035 3.09995C4.38369 3.35995 4.75702 3.35995 4.87035 3.09995Z" fill="#BDBDBD"/>
<path d="M11.937 8.09995L11.6104 8.80661L10.9037 9.13328C10.6437 9.25328 10.6437 9.61995 10.9037 9.73995L11.6104 10.0666L11.937 10.7733C12.057 11.0333 12.4237 11.0333 12.5437 10.7733L12.8704 10.0666L13.5704 9.73328C13.8304 9.61328 13.8304 9.24661 13.5704 9.12661L12.8637 8.79995L12.537 8.09328C12.4237 7.83995 12.0504 7.83995 11.937 8.09995Z" fill="#BDBDBD"/>
<path d="M10.7104 5.17995L8.82368 3.29328C8.56369 3.03328 8.14368 3.03328 7.88369 3.29328L0.430352 10.7399C0.170352 10.9999 0.170352 11.4199 0.430352 11.6799L2.31702 13.5666C2.57702 13.8266 2.99702 13.8266 3.25702 13.5666L10.7037 6.11995C10.9704 5.86661 10.9704 5.43995 10.7104 5.17995ZM8.37702 6.57328L7.43702 5.63328L8.35702 4.71328L9.29702 5.65328L8.37702 6.57328Z" fill="#BDBDBD"/>
</svg>
