<svg width="25" height="24" viewBox="0 0 25 24" fill="none" xmlns="http://www.w3.org/2000/svg">
<path d="M15.6431 8.56907L10.9571 15.1391C10.8552 15.2816 10.7935 15.4487 10.7782 15.6232C10.7629 15.7977 10.7946 15.973 10.8701 16.1311L13.4071 21.4421C13.4867 21.6093 13.6121 21.7505 13.7688 21.8495C13.9254 21.9484 14.1068 22.001 14.292 22.0011H14.3301C14.5218 21.9937 14.7071 21.9303 14.8632 21.8187C15.0193 21.7071 15.1391 21.5521 15.208 21.3731L22.1461 3.33606C22.2142 3.15875 22.2294 2.96551 22.19 2.7797C22.1506 2.59389 22.0583 2.42348 21.9241 2.28906L15.6431 8.56907Z" fill="#828282"/>
<path opacity="0.3" d="M20.8769 2.06648L2.83891 9.00148C2.66057 9.07085 2.50637 9.19082 2.39529 9.34663C2.2842 9.50244 2.22107 9.68731 2.21363 9.87853C2.2062 10.0697 2.25479 10.259 2.35343 10.4229C2.45208 10.5869 2.59648 10.7185 2.7689 10.8015L8.0789 13.3365C8.23672 13.4126 8.41214 13.4448 8.58671 13.4297C8.76128 13.4145 8.92854 13.3526 9.0709 13.2505L15.6429 8.56548L21.9239 2.28448C21.7891 2.15096 21.6184 2.05932 21.4326 2.02064C21.2469 1.98196 21.0538 1.99788 20.8769 2.06648Z" fill="#828282"/>
</svg>
