<svg width="21" height="18" viewBox="0 0 21 18" fill="none" xmlns="http://www.w3.org/2000/svg">
<path d="M17.5557 5H16.5557V0H4.55566V5H3.55566C1.89566 5 0.555664 6.34 0.555664 8V14H4.55566V18H16.5557V14H20.5557V8C20.5557 6.34 19.2157 5 17.5557 5ZM6.55566 2H14.5557V5H6.55566V2ZM14.5557 16H6.55566V12H14.5557V16ZM16.5557 12V10H4.55566V12H2.55566V8C2.55566 7.45 3.00566 7 3.55566 7H17.5557C18.1057 7 18.5557 7.45 18.5557 8V12H16.5557Z" fill="#4F4F4F"/>
<path d="M16.5557 9.5C17.1079 9.5 17.5557 9.05228 17.5557 8.5C17.5557 7.94772 17.1079 7.5 16.5557 7.5C16.0034 7.5 15.5557 7.94772 15.5557 8.5C15.5557 9.05228 16.0034 9.5 16.5557 9.5Z" fill="#4F4F4F"/>
</svg>
