<svg width="19" height="21" viewBox="0 0 19 21" fill="none" xmlns="http://www.w3.org/2000/svg">
<path d="M16.7793 1.78613L15.2793 0.286133L13.7793 1.78613L12.2793 0.286133L10.7793 1.78613L9.2793 0.286133L7.7793 1.78613L6.2793 0.286133L4.7793 1.78613L3.2793 0.286133V14.2861H0.279297V17.2861C0.279297 18.9461 1.6193 20.2861 3.2793 20.2861H15.2793C16.9393 20.2861 18.2793 18.9461 18.2793 17.2861V0.286133L16.7793 1.78613ZM16.2793 17.2861C16.2793 17.8361 15.8293 18.2861 15.2793 18.2861C14.7293 18.2861 14.2793 17.8361 14.2793 17.2861V14.2861H5.2793V3.28613H16.2793V17.2861Z" fill="#828282"/>
<path d="M12.2793 5.28613H6.2793V7.28613H12.2793V5.28613Z" fill="#828282"/>
<path d="M15.2793 5.28613H13.2793V7.28613H15.2793V5.28613Z" fill="#828282"/>
<path d="M12.2793 8.28613H6.2793V10.2861H12.2793V8.28613Z" fill="#828282"/>
<path d="M15.2793 8.28613H13.2793V10.2861H15.2793V8.28613Z" fill="#828282"/>
</svg>
