<svg width="12" height="12" viewBox="0 0 12 12" fill="none" xmlns="http://www.w3.org/2000/svg">
<path d="M10.8385 1.15247C10.5135 0.827474 9.98848 0.827474 9.66348 1.15247L5.58848 5.21914L1.51348 1.14414C1.18848 0.819141 0.663477 0.819141 0.338477 1.14414C0.0134766 1.46914 0.0134766 1.99414 0.338477 2.31914L4.41348 6.39414L0.338477 10.4691C0.0134766 10.7941 0.0134766 11.3191 0.338477 11.6441C0.663477 11.9691 1.18848 11.9691 1.51348 11.6441L5.58848 7.56914L9.66348 11.6441C9.98848 11.9691 10.5135 11.9691 10.8385 11.6441C11.1635 11.3191 11.1635 10.7941 10.8385 10.4691L6.76348 6.39414L10.8385 2.31914C11.1551 2.00247 11.1551 1.46914 10.8385 1.15247Z" fill="#828282"/>
</svg>
