<svg width="21" height="21" viewBox="0 0 21 21" fill="none" xmlns="http://www.w3.org/2000/svg">
<path d="M5.46484 9.09082H15.4648V11.0908H5.46484V9.09082ZM10.4648 0.0908203C4.94484 0.0908203 0.464844 4.57082 0.464844 10.0908C0.464844 15.6108 4.94484 20.0908 10.4648 20.0908C15.9848 20.0908 20.4648 15.6108 20.4648 10.0908C20.4648 4.57082 15.9848 0.0908203 10.4648 0.0908203ZM10.4648 18.0908C6.05484 18.0908 2.46484 14.5008 2.46484 10.0908C2.46484 5.68082 6.05484 2.09082 10.4648 2.09082C14.8748 2.09082 18.4648 5.68082 18.4648 10.0908C18.4648 14.5008 14.8748 18.0908 10.4648 18.0908Z" fill="#828282"/>
</svg>
