<svg width="19" height="21" viewBox="0 0 19 21" fill="none" xmlns="http://www.w3.org/2000/svg">
<path d="M4.82324 9.74023H6.82324V11.7402H4.82324V9.74023ZM16.8232 2.74023H15.8232V0.740234H13.8232V2.74023H5.82324V0.740234H3.82324V2.74023H2.82324C1.71324 2.74023 0.833242 3.64023 0.833242 4.74023L0.823242 18.7402C0.823242 19.8402 1.71324 20.7402 2.82324 20.7402H16.8232C17.9232 20.7402 18.8232 19.8402 18.8232 18.7402V4.74023C18.8232 3.64023 17.9232 2.74023 16.8232 2.74023ZM16.8232 18.7402H2.82324V8.74023H16.8232V18.7402ZM16.8232 6.74023H2.82324V4.74023H16.8232V6.74023ZM12.8232 9.74023H14.8232V11.7402H12.8232V9.74023ZM8.82324 9.74023H10.8232V11.7402H8.82324V9.74023Z" fill="#BDBDBD"/>
</svg>
