<svg width="20" height="19" viewBox="0 0 20 19" fill="none" xmlns="http://www.w3.org/2000/svg">
<path d="M18.3638 4.37082V2.09082C18.3638 0.99082 17.4638 0.0908203 16.3638 0.0908203H2.36377C1.25377 0.0908203 0.36377 0.99082 0.36377 2.09082V16.0908C0.36377 17.1908 1.25377 18.0908 2.36377 18.0908H16.3638C17.4638 18.0908 18.3638 17.1908 18.3638 16.0908V13.8108C18.9538 13.4608 19.3638 12.8308 19.3638 12.0908V6.09082C19.3638 5.35082 18.9538 4.71082 18.3638 4.37082ZM17.3638 6.09082V12.0908H10.3638V6.09082H17.3638ZM2.36377 16.0908V2.09082H16.3638V4.09082H10.3638C9.26377 4.09082 8.36377 4.99082 8.36377 6.09082V12.0908C8.36377 13.1908 9.26377 14.0908 10.3638 14.0908H16.3638V16.0908H2.36377Z" fill="#828282"/>
</svg>
