<svg width="21" height="21" viewBox="0 0 21 21" fill="none" xmlns="http://www.w3.org/2000/svg">
<path opacity="0.3" d="M10.8496 2.74023C6.43961 2.74023 2.84961 6.33023 2.84961 10.7402C2.84961 15.1502 6.43961 18.7402 10.8496 18.7402C15.2596 18.7402 18.8496 15.1502 18.8496 10.7402C18.8496 6.33023 15.2596 2.74023 10.8496 2.74023ZM11.7296 16.5002V17.7402H9.97961V16.4502C9.23961 16.2702 7.58961 15.6802 6.95961 13.4902L8.60961 12.8202C8.66961 13.0402 9.18961 14.9102 11.0096 14.9102C11.9396 14.9102 12.9896 14.4302 12.9896 13.3002C12.9896 12.3402 12.2896 11.8402 10.7096 11.2702C9.60961 10.8802 7.35961 10.2402 7.35961 7.96023C7.35961 7.86023 7.36961 5.56023 9.97961 5.00023V3.74023H11.7296V4.98023C13.5696 5.30023 14.2396 6.77023 14.3896 7.21023L12.8096 7.88023C12.6996 7.53023 12.2196 6.54023 10.9096 6.54023C10.2096 6.54023 9.09961 6.91023 9.09961 7.93023C9.09961 8.88023 9.95961 9.24023 11.7396 9.83023C14.1396 10.6602 14.7496 11.8802 14.7496 13.2802C14.7496 15.9102 12.2496 16.4102 11.7296 16.5002Z" fill="#BDBDBD"/>
<path d="M11.7392 9.84023C9.95922 9.25023 9.09922 8.88023 9.09922 7.94023C9.09922 6.92023 10.2092 6.55023 10.9092 6.55023C12.2192 6.55023 12.6992 7.54023 12.8092 7.89023L14.3892 7.22023C14.2392 6.78023 13.5692 5.31023 11.7292 4.99023V3.74023H9.97922V5.00023C7.37922 5.56023 7.35922 7.85023 7.35922 7.96023C7.35922 10.2302 9.60922 10.8702 10.7092 11.2702C12.2892 11.8302 12.9892 12.3402 12.9892 13.3002C12.9892 14.4302 11.9392 14.9102 11.0092 14.9102C9.18922 14.9102 8.66922 13.0402 8.60922 12.8202L6.94922 13.4902C7.57922 15.6802 9.22922 16.2702 9.96922 16.4502V17.7402H11.7192V16.5002C12.2392 16.4102 14.7392 15.9102 14.7392 13.2802C14.7492 11.8902 14.1392 10.6702 11.7392 9.84023Z" fill="#BDBDBD"/>
<path d="M10.8496 0.740234C5.32961 0.740234 0.849609 5.22023 0.849609 10.7402C0.849609 16.2602 5.32961 20.7402 10.8496 20.7402C16.3696 20.7402 20.8496 16.2602 20.8496 10.7402C20.8496 5.22023 16.3696 0.740234 10.8496 0.740234ZM10.8496 18.7402C6.43961 18.7402 2.84961 15.1502 2.84961 10.7402C2.84961 6.33023 6.43961 2.74023 10.8496 2.74023C15.2596 2.74023 18.8496 6.33023 18.8496 10.7402C18.8496 15.1502 15.2596 18.7402 10.8496 18.7402Z" fill="#BDBDBD"/>
</svg>
