<svg width="21" height="21" viewBox="0 0 21 21" fill="none" xmlns="http://www.w3.org/2000/svg">
<path d="M11.1719 5.09082H9.17188V9.09082H5.17188V11.0908H9.17188V15.0908H11.1719V11.0908H15.1719V9.09082H11.1719V5.09082ZM10.1719 0.0908203C4.65188 0.0908203 0.171875 4.57082 0.171875 10.0908C0.171875 15.6108 4.65188 20.0908 10.1719 20.0908C15.6919 20.0908 20.1719 15.6108 20.1719 10.0908C20.1719 4.57082 15.6919 0.0908203 10.1719 0.0908203ZM10.1719 18.0908C5.76188 18.0908 2.17188 14.5008 2.17188 10.0908C2.17188 5.68082 5.76188 2.09082 10.1719 2.09082C14.5819 2.09082 18.1719 5.68082 18.1719 10.0908C18.1719 14.5008 14.5819 18.0908 10.1719 18.0908Z" fill="#828282"/>
</svg>
