<svg width="15" height="18" viewBox="0 0 15 18" fill="none" xmlns="http://www.w3.org/2000/svg">
<path d="M8.56354 0.583984H2.58854C1.67187 0.583984 0.921875 1.33398 0.921875 2.25065V15.584C0.921875 16.5007 1.67187 17.2507 2.58854 17.2507H12.5885C13.5052 17.2507 14.2552 16.5007 14.2552 15.584V6.27565C14.2552 5.83398 14.0802 5.40898 13.7635 5.10065L9.73854 1.07565C9.43021 0.758984 9.00521 0.583984 8.56354 0.583984ZM10.9219 11.4173C10.9219 13.3673 9.24687 14.9257 7.26354 14.734C5.53021 14.5673 4.25521 13.0173 4.25521 11.2757V6.95065C4.25521 5.85898 5.03854 4.86732 6.12187 4.75898C7.37187 4.63398 8.42188 5.60898 8.42188 6.83398V10.584C8.42188 11.0423 8.04688 11.4173 7.58854 11.4173C7.13021 11.4173 6.75521 11.0423 6.75521 10.584V6.83398C6.75521 6.60065 6.57188 6.41732 6.33854 6.41732C6.10521 6.41732 5.92188 6.60065 5.92188 6.83398V11.3257C5.92188 12.159 6.48854 12.9257 7.30521 13.059C8.35521 13.234 9.25521 12.4257 9.25521 11.4173V8.91732C9.25521 8.45898 9.63021 8.08398 10.0885 8.08398C10.5469 8.08398 10.9219 8.45898 10.9219 8.91732V11.4173ZM9.25521 4.75065V2.25065L12.5885 5.58398H10.0885C9.63021 5.58398 9.25521 5.20898 9.25521 4.75065Z" fill="#828282"/>
</svg>
