<svg width="18" height="12" viewBox="0 0 18 12" fill="none" xmlns="http://www.w3.org/2000/svg">
<path d="M15 3H12.75V0H2.25C1.425 0 0.75 0.675 0.75 1.5V9.75H2.25C2.25 10.995 3.255 12 4.5 12C5.745 12 6.75 10.995 6.75 9.75H11.25C11.25 10.995 12.255 12 13.5 12C14.745 12 15.75 10.995 15.75 9.75H17.25V6L15 3ZM4.5 10.875C3.8775 10.875 3.375 10.3725 3.375 9.75C3.375 9.1275 3.8775 8.625 4.5 8.625C5.1225 8.625 5.625 9.1275 5.625 9.75C5.625 10.3725 5.1225 10.875 4.5 10.875ZM14.625 4.125L16.095 6H12.75V4.125H14.625ZM13.5 10.875C12.8775 10.875 12.375 10.3725 12.375 9.75C12.375 9.1275 12.8775 8.625 13.5 8.625C14.1225 8.625 14.625 9.1275 14.625 9.75C14.625 10.3725 14.1225 10.875 13.5 10.875Z" fill="#6FCF97"/>
</svg>
