<svg width="37" height="37" viewBox="0 0 37 37" fill="none" xmlns="http://www.w3.org/2000/svg">
<rect x="0.703125" y="0.958984" width="36" height="36" rx="18" fill="#0396FF" fill-opacity="0.2"/>
<path d="M21.2973 18.8501C22.0293 19.0061 22.6173 19.3721 23.0613 19.9481C23.5053 20.5121 23.7273 21.1601 23.7273 21.8921C23.7273 22.9481 23.3553 23.7881 22.6113 24.4121C21.8793 25.0241 20.8533 25.3301 19.5333 25.3301H13.6473V12.6941H19.3353C20.6193 12.6941 21.6213 12.9881 22.3413 13.5761C23.0733 14.1641 23.4393 14.9621 23.4393 15.9701C23.4393 16.7141 23.2413 17.3321 22.8453 17.8241C22.4613 18.3161 21.9453 18.6581 21.2973 18.8501ZM16.7253 17.8061H18.7413C19.2453 17.8061 19.6293 17.6981 19.8933 17.4821C20.1693 17.2541 20.3073 16.9241 20.3073 16.4921C20.3073 16.0601 20.1693 15.7301 19.8933 15.5021C19.6293 15.2741 19.2453 15.1601 18.7413 15.1601H16.7253V17.8061ZM18.9933 22.8461C19.5093 22.8461 19.9053 22.7321 20.1813 22.5041C20.4693 22.2641 20.6133 21.9221 20.6133 21.4781C20.6133 21.0341 20.4633 20.6861 20.1633 20.4341C19.8753 20.1821 19.4733 20.0561 18.9573 20.0561H16.7253V22.8461H18.9933Z" fill="#0396FF"/>
</svg>
