<svg width="15" height="13" viewBox="0 0 15 13" fill="none" xmlns="http://www.w3.org/2000/svg">
<path d="M8.49839 0.293342C5.10505 0.200009 2.32505 2.92668 2.32505 6.29334H1.13172C0.83172 6.29334 0.685053 6.65334 0.898386 6.86001L2.75839 8.72668C2.89172 8.86001 3.09839 8.86001 3.23172 8.72668L5.09172 6.86001C5.29839 6.65334 5.15172 6.29334 4.85172 6.29334H3.65839C3.65839 3.69334 5.77839 1.59334 8.39172 1.62668C10.8717 1.66001 12.9584 3.74668 12.9917 6.22668C13.0251 8.83334 10.9251 10.96 8.32505 10.96C7.25172 10.96 6.25839 10.5933 5.47172 9.97334C5.20505 9.76668 4.83172 9.78668 4.59172 10.0267C4.31172 10.3067 4.33172 10.78 4.64505 11.02C5.65839 11.82 6.93172 12.2933 8.32505 12.2933C11.6917 12.2933 14.4184 9.51334 14.3251 6.12001C14.2384 2.99334 11.6251 0.380009 8.49839 0.293342ZM8.15839 3.62668C7.88505 3.62668 7.65839 3.85334 7.65839 4.12668V6.58001C7.65839 6.81334 7.78505 7.03334 7.98505 7.15334L10.0651 8.38668C10.3051 8.52668 10.6117 8.44668 10.7517 8.21334C10.8917 7.97334 10.8117 7.66668 10.5784 7.52668L8.65839 6.38668V4.12001C8.65839 3.85334 8.43172 3.62668 8.15839 3.62668Z" fill="#BDBDBD"/>
</svg>
