<svg width="24" height="25" viewBox="0 0 24 25" fill="none" xmlns="http://www.w3.org/2000/svg">
<path opacity="0.3" d="M4.05369 15.7216C8.34469 8.29161 13.5777 3.78661 20.9277 2.53761C21.0723 2.51181 21.2211 2.52133 21.3612 2.56537C21.5014 2.60941 21.6289 2.68666 21.7327 2.79056C21.8366 2.89445 21.9139 3.0219 21.9579 3.16207C22.002 3.30224 22.0115 3.45097 21.9857 3.59561C20.7367 10.9456 16.2317 16.1786 8.80169 20.4696L4.05369 15.7216ZM3.81869 17.8606L2.63269 20.9716C2.58372 21.1 2.57295 21.2398 2.60165 21.3741C2.63036 21.5085 2.69733 21.6317 2.79448 21.7288C2.89163 21.826 3.01481 21.8929 3.14917 21.9217C3.28353 21.9504 3.42332 21.9396 3.55169 21.8906L6.66469 20.7036L3.81869 17.8606ZM16.4997 6.52161C16.203 6.52161 15.913 6.60959 15.6663 6.77441C15.4197 6.93923 15.2274 7.1735 15.1139 7.44759C15.0003 7.72168 14.9706 8.02328 15.0285 8.31425C15.0864 8.60522 15.2293 8.8725 15.439 9.08227C15.6488 9.29205 15.9161 9.43491 16.2071 9.49279C16.498 9.55067 16.7996 9.52096 17.0737 9.40743C17.3478 9.2939 17.5821 9.10164 17.7469 8.85497C17.9117 8.60829 17.9997 8.31829 17.9997 8.02161C17.9997 7.62379 17.8417 7.24226 17.5604 6.96095C17.279 6.67965 16.8975 6.52161 16.4997 6.52161Z" fill="#828282"/>
<path d="M4.05423 15.7215L2.24723 13.9145C2.15505 13.8223 2.08547 13.7101 2.04395 13.5865C2.00243 13.4629 1.9901 13.3314 2.00793 13.2023C2.02575 13.0731 2.07325 12.9499 2.14669 12.8422C2.22013 12.7345 2.31752 12.6453 2.43123 12.5815L9.15323 8.8125C7.17353 10.8951 5.4607 13.2159 4.05423 15.7215ZM8.80023 20.4675L10.6072 22.2745C10.6994 22.3667 10.8117 22.4363 10.9352 22.4778C11.0588 22.5193 11.1903 22.5316 11.3195 22.5138C11.4486 22.496 11.5718 22.4485 11.6795 22.375C11.7872 22.3016 11.8765 22.2042 11.9402 22.0905L15.7092 15.3675C13.6269 17.3478 11.3061 19.061 8.80023 20.4675ZM7.04023 18.7065L12.5832 13.1635C12.7381 12.9992 12.8228 12.7811 12.8195 12.5553C12.8161 12.3296 12.725 12.114 12.5653 11.9544C12.4057 11.7948 12.1901 11.7036 11.9644 11.7003C11.7387 11.6969 11.5205 11.7817 11.3562 11.9365L5.81323 17.4795L7.04023 18.7065Z" fill="#828282"/>
</svg>
