<svg width="21" height="21" viewBox="0 0 21 21" fill="none" xmlns="http://www.w3.org/2000/svg">
<path opacity="0.3" d="M10.7803 18.2861C15.1986 18.2861 18.7803 14.7044 18.7803 10.2861C18.7803 5.86785 15.1986 2.28613 10.7803 2.28613C6.362 2.28613 2.78027 5.86785 2.78027 10.2861C2.78027 14.7044 6.362 18.2861 10.7803 18.2861Z" fill="#2D9CDB"/>
<path d="M10.7803 0.286133C5.25027 0.286133 0.780273 4.75613 0.780273 10.2861C0.780273 15.8161 5.25027 20.2861 10.7803 20.2861C16.3103 20.2861 20.7803 15.8161 20.7803 10.2861C20.7803 4.75613 16.3103 0.286133 10.7803 0.286133ZM10.7803 18.2861C6.36027 18.2861 2.78027 14.7061 2.78027 10.2861C2.78027 5.86613 6.36027 2.28613 10.7803 2.28613C15.2003 2.28613 18.7803 5.86613 18.7803 10.2861C18.7803 14.7061 15.2003 18.2861 10.7803 18.2861Z" fill="#2D9CDB"/>
</svg>
