<svg width="17" height="21" viewBox="0 0 17 21" fill="none" xmlns="http://www.w3.org/2000/svg">
<path opacity="0.3" d="M2.61328 18.0781V2.07812H9.61328V6.07812H14.6133V18.0781H2.61328ZM7.61328 17.0781H9.61328V16.0781H10.6133C11.1633 16.0781 11.6133 15.6281 11.6133 15.0781V12.0781C11.6133 11.5281 11.1633 11.0781 10.6133 11.0781H7.61328V10.0781H11.6133V8.07812H9.61328V7.07812H7.61328V8.07812H6.61328C6.06328 8.07812 5.61328 8.52812 5.61328 9.07812V12.0781C5.61328 12.6281 6.06328 13.0781 6.61328 13.0781H9.61328V14.0781H5.61328V16.0781H7.61328V17.0781Z" fill="#BDBDBD"/>
<path d="M10.6133 0.078125H2.61328C1.51328 0.078125 0.613281 0.978125 0.613281 2.07812V18.0781C0.613281 19.1781 1.51328 20.0781 2.61328 20.0781H14.6133C15.7133 20.0781 16.6133 19.1781 16.6133 18.0781V6.07812L10.6133 0.078125ZM2.61328 18.0781V2.07812H9.61328V6.07812H14.6133V18.0781H2.61328ZM7.61328 17.0781H9.61328V16.0781H10.6133C11.1633 16.0781 11.6133 15.6281 11.6133 15.0781V12.0781C11.6133 11.5281 11.1633 11.0781 10.6133 11.0781H7.61328V10.0781H11.6133V8.07812H9.61328V7.07812H7.61328V8.07812H6.61328C6.06328 8.07812 5.61328 8.52812 5.61328 9.07812V12.0781C5.61328 12.6281 6.06328 13.0781 6.61328 13.0781H9.61328V14.0781H5.61328V16.0781H7.61328V17.0781Z" fill="#BDBDBD"/>
</svg>
