<svg width="25" height="24" viewBox="0 0 25 24" fill="none" xmlns="http://www.w3.org/2000/svg">
<path opacity="0.3" d="M19.5 21.9995H5.5C4.9 21.9995 4.5 21.5995 4.5 20.9995V2.99951C4.5 2.39951 4.9 1.99951 5.5 1.99951H14.5L20.5 7.99951V20.9995C20.5 21.5995 20.1 21.9995 19.5 21.9995ZM15.5 16.9995C15.5 16.3995 15.1 15.9995 14.5 15.9995H8.5C7.9 15.9995 7.5 16.3995 7.5 16.9995C7.5 17.5995 7.9 17.9995 8.5 17.9995H14.5C15.1 17.9995 15.5 17.5995 15.5 16.9995ZM17.5 11.9995C17.5 11.3995 17.1 10.9995 16.5 10.9995H8.5C7.9 10.9995 7.5 11.3995 7.5 11.9995C7.5 12.5995 7.9 12.9995 8.5 12.9995H16.5C17.1 12.9995 17.5 12.5995 17.5 11.9995ZM17.5 6.99951C17.5 6.39951 17.1 5.99951 16.5 5.99951H8.5C7.9 5.99951 7.5 6.39951 7.5 6.99951C7.5 7.59951 7.9 7.99951 8.5 7.99951H16.5C17.1 7.99951 17.5 7.59951 17.5 6.99951Z" fill="#828282"/>
<path d="M15.5 7.99951H20.5L14.5 1.99951V6.99951C14.5 7.59951 14.9 7.99951 15.5 7.99951Z" fill="#828282"/>
</svg>
