<svg width="18" height="17" viewBox="0 0 18 17" fill="none" xmlns="http://www.w3.org/2000/svg">
<path d="M10.0109 4.23698H8.34424V7.57031H5.01091V9.23698H8.34424V12.5703H10.0109V9.23698H13.3442V7.57031H10.0109V4.23698ZM9.17757 0.0703125C4.57757 0.0703125 0.844238 3.80365 0.844238 8.40365C0.844238 13.0036 4.57757 16.737 9.17757 16.737C13.7776 16.737 17.5109 13.0036 17.5109 8.40365C17.5109 3.80365 13.7776 0.0703125 9.17757 0.0703125ZM9.17757 15.0703C5.50257 15.0703 2.51091 12.0786 2.51091 8.40365C2.51091 4.72865 5.50257 1.73698 9.17757 1.73698C12.8526 1.73698 15.8442 4.72865 15.8442 8.40365C15.8442 12.0786 12.8526 15.0703 9.17757 15.0703Z" fill="white"/>
</svg>
