<svg width="17" height="17" viewBox="0 0 17 17" fill="none" xmlns="http://www.w3.org/2000/svg">
<path opacity="0.3" d="M8.50033 3.52087C5.56033 3.52087 3.16699 5.91421 3.16699 8.85421C3.16699 11.7942 5.56033 14.1875 8.50033 14.1875C11.4403 14.1875 13.8337 11.7942 13.8337 8.85421C13.8337 5.91421 11.4403 3.52087 8.50033 3.52087ZM9.16699 12.1875H7.83366V8.18754H9.16699V12.1875ZM9.16699 6.85421H7.83366V5.52087H9.16699V6.85421Z" fill="#828282"/>
<path d="M7.83301 5.52096H9.16634V6.85429H7.83301V5.52096ZM7.83301 8.18762H9.16634V12.1876H7.83301V8.18762ZM8.49967 2.18762C4.81967 2.18762 1.83301 5.17429 1.83301 8.85429C1.83301 12.5343 4.81967 15.521 8.49967 15.521C12.1797 15.521 15.1663 12.5343 15.1663 8.85429C15.1663 5.17429 12.1797 2.18762 8.49967 2.18762ZM8.49967 14.1876C5.55967 14.1876 3.16634 11.7943 3.16634 8.85429C3.16634 5.91429 5.55967 3.52096 8.49967 3.52096C11.4397 3.52096 13.833 5.91429 13.833 8.85429C13.833 11.7943 11.4397 14.1876 8.49967 14.1876Z" fill="#828282"/>
</svg>
