<svg width="14" height="15" viewBox="0 0 14 15" fill="none" xmlns="http://www.w3.org/2000/svg">
<path d="M8.83697 2.25L12.4595 5.8725V12.75H1.95947V2.25H8.83697ZM8.83697 0.75H1.95947C1.13447 0.75 0.459473 1.425 0.459473 2.25V12.75C0.459473 13.575 1.13447 14.25 1.95947 14.25H12.4595C13.2845 14.25 13.9595 13.575 13.9595 12.75V5.8725C13.9595 5.475 13.802 5.0925 13.517 4.815L9.89447 1.1925C9.61697 0.9075 9.23447 0.75 8.83697 0.75ZM3.45947 9.75H10.9595V11.25H3.45947V9.75ZM3.45947 6.75H10.9595V8.25H3.45947V6.75ZM3.45947 3.75H8.70947V5.25H3.45947V3.75Z" fill="#0396FF"/>
</svg>
