<svg width="13" height="16" viewBox="0 0 13 16" fill="none" xmlns="http://www.w3.org/2000/svg">
<path d="M11.2188 3.25049H9.71875C9.71875 1.59299 8.37625 0.250488 6.71875 0.250488C5.06125 0.250488 3.71875 1.59299 3.71875 3.25049H2.21875C1.39375 3.25049 0.71875 3.92549 0.71875 4.75049V13.7505C0.71875 14.5755 1.39375 15.2505 2.21875 15.2505H11.2188C12.0437 15.2505 12.7188 14.5755 12.7188 13.7505V4.75049C12.7188 3.92549 12.0437 3.25049 11.2188 3.25049ZM6.71875 1.75049C7.54375 1.75049 8.21875 2.42549 8.21875 3.25049H5.21875C5.21875 2.42549 5.89375 1.75049 6.71875 1.75049ZM11.2188 13.7505H2.21875V4.75049H3.71875V6.25049C3.71875 6.66299 4.05625 7.00049 4.46875 7.00049C4.88125 7.00049 5.21875 6.66299 5.21875 6.25049V4.75049H8.21875V6.25049C8.21875 6.66299 8.55625 7.00049 8.96875 7.00049C9.38125 7.00049 9.71875 6.66299 9.71875 6.25049V4.75049H11.2188V13.7505Z" fill="#BDBDBD"/>
</svg>
