<svg width="16" height="15" viewBox="0 0 16 15" fill="none" xmlns="http://www.w3.org/2000/svg">
<path d="M9.13965 4.62299C9.77715 4.39799 10.2871 3.88799 10.5121 3.25049H12.8896L10.6396 8.50049C10.6396 9.74549 11.8171 10.7505 13.2646 10.7505C14.7121 10.7505 15.8896 9.74549 15.8896 8.50049L13.6396 3.25049H15.1396V1.75049H10.5121C10.2046 0.872988 9.37215 0.250488 8.38965 0.250488C7.40715 0.250488 6.57465 0.872988 6.26715 1.75049H1.63965V3.25049H3.13965L0.889648 8.50049C0.889648 9.74549 2.06715 10.7505 3.51465 10.7505C4.96215 10.7505 6.13965 9.74549 6.13965 8.50049L3.88965 3.25049H6.26715C6.49215 3.88799 7.00215 4.39799 7.63965 4.62299V13.0005H0.889648V14.5005H15.8896V13.0005H9.13965V4.62299ZM14.6671 8.50049H11.8621L13.2646 5.23049L14.6671 8.50049ZM4.91715 8.50049H2.11215L3.51465 5.23049L4.91715 8.50049ZM8.38965 3.25049C7.97715 3.25049 7.63965 2.91299 7.63965 2.50049C7.63965 2.08799 7.97715 1.75049 8.38965 1.75049C8.80215 1.75049 9.13965 2.08799 9.13965 2.50049C9.13965 2.91299 8.80215 3.25049 8.38965 3.25049Z" fill="#BDBDBD"/>
</svg>
