<svg width="16" height="15" viewBox="0 0 16 15" fill="none" xmlns="http://www.w3.org/2000/svg">
<path d="M7.70947 0C3.56947 0 0.209473 3.36 0.209473 7.5C0.209473 11.64 3.56947 15 7.70947 15C11.8495 15 15.2095 11.64 15.2095 7.5C15.2095 3.36 11.8495 0 7.70947 0ZM7.70947 13.5C4.40197 13.5 1.70947 10.8075 1.70947 7.5C1.70947 4.1925 4.40197 1.5 7.70947 1.5C11.017 1.5 13.7095 4.1925 13.7095 7.5C13.7095 10.8075 11.017 13.5 7.70947 13.5ZM8.37697 6.825C7.04197 6.3825 6.39697 6.105 6.39697 5.4C6.39697 4.635 7.22947 4.3575 7.75447 4.3575C8.73697 4.3575 9.09697 5.1 9.17947 5.3625L10.3645 4.86C10.252 4.53 9.74947 3.4275 8.36947 3.1875V2.25H7.05697V3.195C5.10697 3.615 5.09197 5.3325 5.09197 5.415C5.09197 7.1175 6.77947 7.5975 7.60447 7.8975C8.78947 8.3175 9.31447 8.7 9.31447 9.42C9.31447 10.2675 8.52697 10.6275 7.82947 10.6275C6.46447 10.6275 6.07447 9.225 6.02947 9.06L4.78447 9.5625C5.25697 11.205 6.49447 11.6475 7.04947 11.7825V12.75H8.36197V11.82C8.75197 11.7525 10.627 11.3775 10.627 9.405C10.6345 8.3625 10.177 7.4475 8.37697 6.825Z" fill="#828282"/>
</svg>
