<svg width="15" height="16" viewBox="0 0 15 16" fill="none" xmlns="http://www.w3.org/2000/svg">
<path d="M7.5 0.216309C3.36 0.216309 0 3.57631 0 7.71631C0 11.8563 3.36 15.2163 7.5 15.2163C11.64 15.2163 15 11.8563 15 7.71631C15 3.57631 11.64 0.216309 7.5 0.216309ZM7.5 13.7163C4.1925 13.7163 1.5 11.0238 1.5 7.71631C1.5 4.40881 4.1925 1.71631 7.5 1.71631C10.8075 1.71631 13.5 4.40881 13.5 7.71631C13.5 11.0238 10.8075 13.7163 7.5 13.7163ZM8.1675 7.04131C6.8325 6.59881 6.1875 6.32131 6.1875 5.61631C6.1875 4.85131 7.02 4.57381 7.545 4.57381C8.5275 4.57381 8.8875 5.31631 8.97 5.57881L10.155 5.07631C10.0425 4.74631 9.54 3.64381 8.16 3.40381V2.46631H6.8475V3.41131C4.8975 3.83131 4.8825 5.54881 4.8825 5.63131C4.8825 7.33381 6.57 7.81381 7.395 8.11381C8.58 8.53381 9.105 8.91631 9.105 9.63631C9.105 10.4838 8.3175 10.8438 7.62 10.8438C6.255 10.8438 5.865 9.44131 5.82 9.27631L4.575 9.77881C5.0475 11.4213 6.285 11.8638 6.84 11.9988V12.9663H8.1525V12.0363C8.5425 11.9688 10.4175 11.5938 10.4175 9.62131C10.425 8.57881 9.9675 7.66381 8.1675 7.04131Z" fill="#0396FF"/>
</svg>
