<svg width="27" height="31" viewBox="0 0 27 31" fill="none" xmlns="http://www.w3.org/2000/svg">
<path fill-rule="evenodd" clip-rule="evenodd" d="M0.696777 3.3457C0.696777 2.55005 1.01285 1.78699 1.57546 1.22438C2.13807 0.661774 2.90113 0.345703 3.69678 0.345703L20.1108 0.345703L26.6968 6.9317V27.3457C26.6968 28.1414 26.3807 28.9044 25.8181 29.467C25.2555 30.0296 24.4924 30.3457 23.6968 30.3457H3.69678C2.90113 30.3457 2.13807 30.0296 1.57546 29.467C1.01285 28.9044 0.696777 28.1414 0.696777 27.3457V3.3457ZM5.69678 12.3457H2.69678V22.3457H4.69678V18.3457H5.69678C6.49243 18.3457 7.25549 18.0296 7.8181 17.467C8.38071 16.9044 8.69678 16.1414 8.69678 15.3457C8.69678 14.5501 8.38071 13.787 7.8181 13.2244C7.25549 12.6618 6.49243 12.3457 5.69678 12.3457ZM13.6968 12.3457H10.6968V22.3457H13.6968C14.4924 22.3457 15.2555 22.0296 15.8181 21.467C16.3807 20.9044 16.6968 20.1414 16.6968 19.3457V15.3457C16.6968 14.5501 16.3807 13.787 15.8181 13.2244C15.2555 12.6618 14.4924 12.3457 13.6968 12.3457ZM18.6968 22.3457V12.3457H24.6968V14.3457H20.6968V16.3457H22.6968V18.3457H20.6968V22.3457H18.6968Z" fill="#0396FF"/>
</svg>
