<svg width="26" height="26" viewBox="0 0 26 26" fill="none" xmlns="http://www.w3.org/2000/svg">
<circle cx="13.1426" cy="13.0002" r="12.5" fill="#F2F2F2"/>
<path d="M17.5178 18.0003H8.76776C8.602 18.0003 8.44303 18.0661 8.32582 18.1833C8.20861 18.3005 8.14276 18.4595 8.14276 18.6253C8.14276 18.791 8.20861 18.95 8.32582 19.0672C8.44303 19.1844 8.602 19.2503 8.76776 19.2503H17.5178C17.6835 19.2503 17.8425 19.1844 17.9597 19.0672C18.0769 18.95 18.1428 18.791 18.1428 18.6253C18.1428 18.4595 18.0769 18.3005 17.9597 18.1833C17.8425 18.0661 17.6835 18.0003 17.5178 18.0003ZM8.76776 16.7503H8.82401L11.4303 16.5128C11.7158 16.4843 11.9828 16.3585 12.1865 16.1565L17.8115 10.5315C18.0298 10.3009 18.1478 9.99309 18.1396 9.67561C18.1314 9.35813 17.9977 9.05684 17.7678 8.83778L16.0553 7.12528C15.8318 6.91534 15.5389 6.79488 15.2323 6.78681C14.9258 6.77874 14.627 6.88363 14.3928 7.08153L8.76776 12.7065C8.56574 12.9103 8.43995 13.1773 8.41151 13.4628L8.14276 16.069C8.13434 16.1606 8.14622 16.2528 8.17755 16.3393C8.20888 16.4257 8.25889 16.5041 8.32401 16.569C8.38241 16.627 8.45167 16.6728 8.52782 16.7039C8.60397 16.735 8.68551 16.7508 8.76776 16.7503ZM15.1865 8.00028L16.8928 9.70653L15.6428 10.9253L13.9678 9.25028L15.1865 8.00028ZM9.62401 13.569L13.1428 10.0753L14.8303 11.7628L11.3303 15.2628L9.45526 15.4378L9.62401 13.569Z" fill="#828282"/>
</svg>
