<svg width="10" height="10" viewBox="0 0 10 10" fill="none" xmlns="http://www.w3.org/2000/svg">
<path d="M2.27 1.64722C2.3 2.09222 2.375 2.52722 2.495 2.94222L1.895 3.54222C1.69 2.94222 1.56 2.30722 1.515 1.64722H2.27ZM7.2 7.65722C7.625 7.77722 8.06 7.85222 8.5 7.88222V8.62722C7.84 8.58222 7.205 8.45222 6.6 8.25222L7.2 7.65722ZM2.75 0.647217H1C0.725 0.647217 0.5 0.872217 0.5 1.14722C0.5 5.84222 4.305 9.64722 9 9.64722C9.275 9.64722 9.5 9.42222 9.5 9.14722V7.40222C9.5 7.12722 9.275 6.90222 9 6.90222C8.38 6.90222 7.775 6.80222 7.215 6.61722C7.165 6.59722 7.11 6.59222 7.06 6.59222C6.93 6.59222 6.805 6.64222 6.705 6.73722L5.605 7.83722C4.19 7.11222 3.03 5.95722 2.31 4.54222L3.41 3.44222C3.55 3.30222 3.59 3.10722 3.535 2.93222C3.35 2.37222 3.25 1.77222 3.25 1.14722C3.25 0.872217 3.025 0.647217 2.75 0.647217Z" fill="#4F4F4F"/>
</svg>
