<svg width="14" height="14" viewBox="0 0 14 14" fill="none" xmlns="http://www.w3.org/2000/svg">
<path d="M13.4664 6.71992L7.46637 0.719919C7.22637 0.479919 6.89303 0.333252 6.52637 0.333252H1.8597C1.12637 0.333252 0.526367 0.933252 0.526367 1.66659V6.33325C0.526367 6.69992 0.673034 7.03325 0.9197 7.27992L6.9197 13.2799C7.1597 13.5199 7.49303 13.6666 7.8597 13.6666C8.22637 13.6666 8.5597 13.5199 8.7997 13.2733L13.4664 8.60659C13.713 8.36659 13.8597 8.03325 13.8597 7.66659C13.8597 7.29992 13.7064 6.95992 13.4664 6.71992ZM2.8597 3.66659C2.30637 3.66659 1.8597 3.21992 1.8597 2.66659C1.8597 2.11325 2.30637 1.66659 2.8597 1.66659C3.41303 1.66659 3.8597 2.11325 3.8597 2.66659C3.8597 3.21992 3.41303 3.66659 2.8597 3.66659Z" fill="#BDBDBD"/>
</svg>
