<svg width="23" height="20" viewBox="0 0 23 20" fill="none" xmlns="http://www.w3.org/2000/svg">
<path d="M21.625 7.50002H16.835L12.455 0.94002C12.265 0.66002 11.945 0.52002 11.625 0.52002C11.305 0.52002 10.985 0.66002 10.795 0.95002L6.415 7.50002H1.625C1.075 7.50002 0.625 7.95002 0.625 8.50002C0.625 8.59002 0.635 8.68002 0.665 8.77002L3.205 18.04C3.435 18.88 4.205 19.5 5.125 19.5H18.125C19.045 19.5 19.815 18.88 20.055 18.04L22.595 8.77002L22.625 8.50002C22.625 7.95002 22.175 7.50002 21.625 7.50002ZM11.625 3.30002L14.425 7.50002H8.825L11.625 3.30002ZM18.125 17.5L5.135 17.51L2.935 9.50002H20.325L18.125 17.5ZM11.625 11.5C10.525 11.5 9.625 12.4 9.625 13.5C9.625 14.6 10.525 15.5 11.625 15.5C12.725 15.5 13.625 14.6 13.625 13.5C13.625 12.4 12.725 11.5 11.625 11.5Z" fill="#828282"/>
</svg>
