<svg width="13" height="14" viewBox="0 0 13 14" fill="none" xmlns="http://www.w3.org/2000/svg">
<path d="M1.58203 7.99609C1.58203 6.75859 2.08453 5.63359 2.90203 4.81609L1.83703 3.75109C0.757031 4.83859 0.0820312 6.33859 0.0820312 7.99609C0.0820312 11.0561 2.36953 13.5761 5.33203 13.9436V12.4286C3.20953 12.0686 1.58203 10.2236 1.58203 7.99609ZM12.082 7.99609C12.082 4.68109 9.39703 1.99609 6.08203 1.99609C6.03703 1.99609 5.99203 2.00359 5.94703 2.00359L6.76453 1.18609L5.70703 0.121094L3.08203 2.74609L5.70703 5.37109L6.76453 4.31359L5.95453 3.50359C5.99953 3.50359 6.04453 3.49609 6.08203 3.49609C8.56453 3.49609 10.582 5.51359 10.582 7.99609C10.582 10.2236 8.95453 12.0686 6.83203 12.4286V13.9436C9.79453 13.5761 12.082 11.0561 12.082 7.99609Z" fill="#0396FF"/>
</svg>
