<svg width="21" height="21" viewBox="0 0 21 21" fill="none" xmlns="http://www.w3.org/2000/svg">
<path opacity="0.3" d="M10.1914 18.2861C14.6097 18.2861 18.1914 14.7044 18.1914 10.2861C18.1914 5.86785 14.6097 2.28613 10.1914 2.28613C5.77313 2.28613 2.19141 5.86785 2.19141 10.2861C2.19141 14.7044 5.77313 18.2861 10.1914 18.2861Z" fill="#F2994A"/>
<path d="M10.1914 0.286133C4.66141 0.286133 0.191406 4.75613 0.191406 10.2861C0.191406 15.8161 4.66141 20.2861 10.1914 20.2861C15.7214 20.2861 20.1914 15.8161 20.1914 10.2861C20.1914 4.75613 15.7214 0.286133 10.1914 0.286133ZM10.1914 18.2861C5.77141 18.2861 2.19141 14.7061 2.19141 10.2861C2.19141 5.86613 5.77141 2.28613 10.1914 2.28613C14.6114 2.28613 18.1914 5.86613 18.1914 10.2861C18.1914 14.7061 14.6114 18.2861 10.1914 18.2861Z" fill="#F2994A"/>
</svg>
