<svg width="10" height="13" viewBox="0 0 10 13" fill="none" xmlns="http://www.w3.org/2000/svg">
<path d="M0.66569 10.87C0.66569 11.6034 1.26569 12.2034 1.99902 12.2034H7.33236C8.06569 12.2034 8.66569 11.6034 8.66569 10.87V4.20337C8.66569 3.47004 8.06569 2.87004 7.33236 2.87004H1.99902C1.26569 2.87004 0.66569 3.47004 0.66569 4.20337V10.87ZM8.66569 0.870036H6.99902L6.52569 0.396702C6.40569 0.276702 6.23236 0.203369 6.05902 0.203369H3.27236C3.09902 0.203369 2.92569 0.276702 2.80569 0.396702L2.33236 0.870036H0.66569C0.299023 0.870036 -0.000976562 1.17004 -0.000976562 1.5367C-0.000976562 1.90337 0.299023 2.20337 0.66569 2.20337H8.66569C9.03236 2.20337 9.33236 1.90337 9.33236 1.5367C9.33236 1.17004 9.03236 0.870036 8.66569 0.870036Z" fill="#EB5757" fill-opacity="0.45"/>
</svg>
