<svg width="21" height="21" viewBox="0 0 21 21" fill="none" xmlns="http://www.w3.org/2000/svg">
<path opacity="0.3" d="M10.3691 18.2861C14.7874 18.2861 18.3691 14.7044 18.3691 10.2861C18.3691 5.86785 14.7874 2.28613 10.3691 2.28613C5.95086 2.28613 2.36914 5.86785 2.36914 10.2861C2.36914 14.7044 5.95086 18.2861 10.3691 18.2861Z" fill="#27AE60"/>
<path d="M10.3691 0.286133C4.83914 0.286133 0.369141 4.75613 0.369141 10.2861C0.369141 15.8161 4.83914 20.2861 10.3691 20.2861C15.8991 20.2861 20.3691 15.8161 20.3691 10.2861C20.3691 4.75613 15.8991 0.286133 10.3691 0.286133ZM10.3691 18.2861C5.94914 18.2861 2.36914 14.7061 2.36914 10.2861C2.36914 5.86613 5.94914 2.28613 10.3691 2.28613C14.7891 2.28613 18.3691 5.86613 18.3691 10.2861C18.3691 14.7061 14.7891 18.2861 10.3691 18.2861Z" fill="#27AE60"/>
</svg>
