<svg width="16" height="16" viewBox="0 0 16 16" fill="none" xmlns="http://www.w3.org/2000/svg">
<path d="M8 0.216309C3.8525 0.216309 0.5 3.56881 0.5 7.71631C0.5 11.8638 3.8525 15.2163 8 15.2163C12.1475 15.2163 15.5 11.8638 15.5 7.71631C15.5 3.56881 12.1475 0.216309 8 0.216309ZM8 13.7163C4.6925 13.7163 2 11.0238 2 7.71631C2 4.40881 4.6925 1.71631 8 1.71631C11.3075 1.71631 14 4.40881 14 7.71631C14 11.0238 11.3075 13.7163 8 13.7163ZM10.6925 3.96631L8 6.65881L5.3075 3.96631L4.25 5.02381L6.9425 7.71631L4.25 10.4088L5.3075 11.4663L8 8.77381L10.6925 11.4663L11.75 10.4088L9.0575 7.71631L11.75 5.02381L10.6925 3.96631Z" fill="#EB5757"/>
</svg>
