<svg width="72" height="72" viewBox="0 0 72 72" fill="none" xmlns="http://www.w3.org/2000/svg">
<path d="M32.458 57.6637H39.5413V50.5804H32.458V57.6637ZM35.9997 0.99707C16.4497 0.99707 0.583008 16.8637 0.583008 36.4137C0.583008 55.9637 16.4497 71.8304 35.9997 71.8304C55.5497 71.8304 71.4163 55.9637 71.4163 36.4137C71.4163 16.8637 55.5497 0.99707 35.9997 0.99707ZM35.9997 64.7471C20.3809 64.7471 7.66634 52.0325 7.66634 36.4137C7.66634 20.795 20.3809 8.0804 35.9997 8.0804C51.6184 8.0804 64.333 20.795 64.333 36.4137C64.333 52.0325 51.6184 64.7471 35.9997 64.7471ZM35.9997 15.1637C28.1726 15.1637 21.833 21.5033 21.833 29.3304H28.9163C28.9163 25.4346 32.1038 22.2471 35.9997 22.2471C39.8955 22.2471 43.083 25.4346 43.083 29.3304C43.083 36.4137 32.458 35.5283 32.458 47.0387H39.5413C39.5413 39.07 50.1663 38.1846 50.1663 29.3304C50.1663 21.5033 43.8268 15.1637 35.9997 15.1637Z" fill="#EB5757" fill-opacity="0.45"/>
</svg>
