<svg width="21" height="21" viewBox="0 0 21 21" fill="none" xmlns="http://www.w3.org/2000/svg">
<path opacity="0.3" d="M10.6025 18.2861C15.0208 18.2861 18.6025 14.7044 18.6025 10.2861C18.6025 5.86785 15.0208 2.28613 10.6025 2.28613C6.18426 2.28613 2.60254 5.86785 2.60254 10.2861C2.60254 14.7044 6.18426 18.2861 10.6025 18.2861Z" fill="#EB5757"/>
<path d="M10.6025 0.286133C5.07254 0.286133 0.602539 4.75613 0.602539 10.2861C0.602539 15.8161 5.07254 20.2861 10.6025 20.2861C16.1325 20.2861 20.6025 15.8161 20.6025 10.2861C20.6025 4.75613 16.1325 0.286133 10.6025 0.286133ZM10.6025 18.2861C6.18254 18.2861 2.60254 14.7061 2.60254 10.2861C2.60254 5.86613 6.18254 2.28613 10.6025 2.28613C15.0225 2.28613 18.6025 5.86613 18.6025 10.2861C18.6025 14.7061 15.0225 18.2861 10.6025 18.2861Z" fill="#EB5757"/>
</svg>
