<svg width="14" height="16" viewBox="0 0 14 16" fill="none" xmlns="http://www.w3.org/2000/svg">
<path d="M11.5 11.1066C10.93 11.1066 10.42 11.3316 10.03 11.6841L4.6825 8.57163C4.72 8.39913 4.75 8.22663 4.75 8.04663C4.75 7.86663 4.72 7.69413 4.6825 7.52163L9.97 4.43913C10.375 4.81413 10.9075 5.04663 11.5 5.04663C12.745 5.04663 13.75 4.04163 13.75 2.79663C13.75 1.55163 12.745 0.546631 11.5 0.546631C10.255 0.546631 9.25 1.55163 9.25 2.79663C9.25 2.97663 9.28 3.14913 9.3175 3.32163L4.03 6.40413C3.625 6.02913 3.0925 5.79663 2.5 5.79663C1.255 5.79663 0.25 6.80163 0.25 8.04663C0.25 9.29163 1.255 10.2966 2.5 10.2966C3.0925 10.2966 3.625 10.0641 4.03 9.68913L9.37 12.8091C9.3325 12.9666 9.31 13.1316 9.31 13.2966C9.31 14.5041 10.2925 15.4866 11.5 15.4866C12.7075 15.4866 13.69 14.5041 13.69 13.2966C13.69 12.0891 12.7075 11.1066 11.5 11.1066ZM11.5 2.04663C11.9125 2.04663 12.25 2.38413 12.25 2.79663C12.25 3.20913 11.9125 3.54663 11.5 3.54663C11.0875 3.54663 10.75 3.20913 10.75 2.79663C10.75 2.38413 11.0875 2.04663 11.5 2.04663ZM2.5 8.79663C2.0875 8.79663 1.75 8.45913 1.75 8.04663C1.75 7.63413 2.0875 7.29663 2.5 7.29663C2.9125 7.29663 3.25 7.63413 3.25 8.04663C3.25 8.45913 2.9125 8.79663 2.5 8.79663ZM11.5 14.0616C11.0875 14.0616 10.75 13.7241 10.75 13.3116C10.75 12.8991 11.0875 12.5616 11.5 12.5616C11.9125 12.5616 12.25 12.8991 12.25 13.3116C12.25 13.7241 11.9125 14.0616 11.5 14.0616Z" fill="#828282"/>
</svg>
