<svg width="16" height="10" viewBox="0 0 16 10" fill="none" xmlns="http://www.w3.org/2000/svg">
<path d="M10.3335 9.44406C10.626 9.73656 11.0985 9.73656 11.391 9.44406L14.8335 6.00156C15.126 5.70906 15.126 5.23656 14.8335 4.94406L11.391 1.50156C11.0985 1.20906 10.626 1.20906 10.3335 1.50156C10.0485 1.79406 10.041 2.27406 10.3335 2.56656L12.4935 4.72656H4.11597C3.70347 4.72656 3.36597 5.06406 3.36597 5.47656C3.36597 5.88906 3.70347 6.22656 4.11597 6.22656H12.4935L10.3335 8.38656C10.041 8.67906 10.041 9.15156 10.3335 9.44406ZM1.11597 9.97656C1.52847 9.97656 1.86597 9.63906 1.86597 9.22656V1.72656C1.86597 1.31406 1.52847 0.976562 1.11597 0.976562C0.703467 0.976562 0.365967 1.31406 0.365967 1.72656V9.22656C0.365967 9.63906 0.703467 9.97656 1.11597 9.97656Z" fill="#27AE60"/>
</svg>
