<svg width="12" height="9" viewBox="0 0 12 9" fill="none" xmlns="http://www.w3.org/2000/svg">
<path d="M2.77969 4.30675L1.04219 6.0505C0.923438 6.1755 0.923438 6.36925 1.04219 6.49425L2.77969 8.238C2.97344 8.438 3.31094 8.29425 3.31094 8.01925V6.89425H7.06719C7.41094 6.89425 7.69219 6.613 7.69219 6.26925C7.69219 5.9255 7.41094 5.64425 7.06719 5.64425H3.31094V4.5255C3.31094 4.24425 2.97344 4.10675 2.77969 4.30675ZM11.8484 2.3005L10.1109 0.556751C9.91719 0.356751 9.57969 0.5005 9.57969 0.7755V1.89425H5.81719C5.47344 1.89425 5.19219 2.1755 5.19219 2.51925C5.19219 2.863 5.47344 3.14425 5.81719 3.14425H9.57344V4.263C9.57344 4.54425 9.91094 4.68175 10.1047 4.48175L11.8422 2.738C11.9672 2.61925 11.9672 2.41925 11.8484 2.3005Z" fill="#0396FF"/>
</svg>
