<svg width="25" height="25" viewBox="0 0 25 25" fill="none" xmlns="http://www.w3.org/2000/svg">
<path opacity="0.3" d="M21.6562 22.5234H12.6562C12.0562 22.5234 11.6562 22.1234 11.6562 21.5234V3.52344C11.6562 2.92344 12.0562 2.52344 12.6562 2.52344H21.6562C22.2563 2.52344 22.6562 2.92344 22.6562 3.52344V21.5234C22.6562 22.1234 22.2563 22.5234 21.6562 22.5234ZM16.0563 17.5234L20.3562 13.2234C20.7562 12.8235 20.7562 12.2234 20.3562 11.8234L16.0563 7.52344V17.5234Z" fill="#828282"/>
<path d="M16.0563 11.5234H3.65625C3.05625 11.5234 2.65625 11.9234 2.65625 12.5234C2.65625 13.1234 3.05625 13.5234 3.65625 13.5234H16.0563V11.5234Z" fill="#828282"/>
</svg>
