<svg width="12" height="12" viewBox="0 0 12 12" fill="none" xmlns="http://www.w3.org/2000/svg">
<path d="M6.00033 11.1877C6.73366 11.1877 7.33366 10.5877 7.33366 9.85433V1.85433C7.33366 1.121 6.73366 0.520996 6.00033 0.520996C5.26699 0.520996 4.66699 1.121 4.66699 1.85433V9.85433C4.66699 10.5877 5.26699 11.1877 6.00033 11.1877ZM2.00033 11.1877C2.73366 11.1877 3.33366 10.5877 3.33366 9.85433V7.18766C3.33366 6.45433 2.73366 5.85433 2.00033 5.85433C1.26699 5.85433 0.666992 6.45433 0.666992 7.18766V9.85433C0.666992 10.5877 1.26699 11.1877 2.00033 11.1877ZM8.66699 5.18766V9.85433C8.66699 10.5877 9.26699 11.1877 10.0003 11.1877C10.7337 11.1877 11.3337 10.5877 11.3337 9.85433V5.18766C11.3337 4.45433 10.7337 3.85433 10.0003 3.85433C9.26699 3.85433 8.66699 4.45433 8.66699 5.18766Z" fill="#27AE60"/>
</svg>
