<svg width="12" height="11" viewBox="0 0 12 11" fill="none" xmlns="http://www.w3.org/2000/svg">
<path d="M5.81966 10.9181C6.55299 10.9181 7.15299 10.3181 7.15299 9.5848V1.5848C7.15299 0.851465 6.55299 0.251465 5.81966 0.251465C5.08633 0.251465 4.48633 0.851465 4.48633 1.5848V9.5848C4.48633 10.3181 5.08633 10.9181 5.81966 10.9181ZM1.81966 10.9181C2.55299 10.9181 3.15299 10.3181 3.15299 9.5848V6.91813C3.15299 6.1848 2.55299 5.5848 1.81966 5.5848C1.08633 5.5848 0.486328 6.1848 0.486328 6.91813V9.5848C0.486328 10.3181 1.08633 10.9181 1.81966 10.9181ZM8.48633 4.91813V9.5848C8.48633 10.3181 9.08633 10.9181 9.81966 10.9181C10.553 10.9181 11.153 10.3181 11.153 9.5848V4.91813C11.153 4.1848 10.553 3.5848 9.81966 3.5848C9.08633 3.5848 8.48633 4.1848 8.48633 4.91813Z" fill="#828282"/>
</svg>
