<svg width="14" height="6" viewBox="0 0 14 6" fill="none" xmlns="http://www.w3.org/2000/svg">
<path d="M7.34375 0.536621C5.57708 0.536621 3.97708 1.19662 2.74375 2.26995L1.48375 1.00995C1.06375 0.589954 0.34375 0.883288 0.34375 1.47662V5.20329C0.34375 5.56995 0.64375 5.86995 1.01042 5.86995H4.73708C5.33042 5.86995 5.63042 5.14995 5.21042 4.72995L3.93708 3.45662C4.86375 2.68329 6.04375 2.20329 7.35042 2.20329C9.45708 2.20329 11.2771 3.42995 12.1438 5.20329C12.3238 5.57662 12.7504 5.76329 13.1438 5.62995C13.6171 5.47662 13.8571 4.93662 13.6438 4.48329C12.4971 2.14995 10.1104 0.536621 7.34375 0.536621Z" fill="white"/>
</svg>
