<svg width="5" height="17" viewBox="0 0 5 17" fill="none" xmlns="http://www.w3.org/2000/svg">
<path d="M2.1001 4.5C3.2001 4.5 4.1001 3.6 4.1001 2.5C4.1001 1.4 3.2001 0.5 2.1001 0.5C1.0001 0.5 0.100098 1.4 0.100098 2.5C0.100098 3.6 1.0001 4.5 2.1001 4.5ZM2.1001 6.5C1.0001 6.5 0.100098 7.4 0.100098 8.5C0.100098 9.6 1.0001 10.5 2.1001 10.5C3.2001 10.5 4.1001 9.6 4.1001 8.5C4.1001 7.4 3.2001 6.5 2.1001 6.5ZM2.1001 12.5C1.0001 12.5 0.100098 13.4 0.100098 14.5C0.100098 15.6 1.0001 16.5 2.1001 16.5C3.2001 16.5 4.1001 15.6 4.1001 14.5C4.1001 13.4 3.2001 12.5 2.1001 12.5Z" fill="#4F4F4F"/>
</svg>
