<svg width="15" height="16" viewBox="0 0 15 16" fill="none" xmlns="http://www.w3.org/2000/svg">
<path d="M2.10156 3.49512H3.60156V4.24512C3.60156 5.07012 4.27656 5.74512 5.10156 5.74512H9.60156C10.4266 5.74512 11.1016 5.07012 11.1016 4.24512V3.49512H12.6016V7.24512H14.1016V3.49512C14.1016 2.67012 13.4266 1.99512 12.6016 1.99512H9.46656C9.15156 1.12512 8.32656 0.495117 7.35156 0.495117C6.37656 0.495117 5.55156 1.12512 5.23656 1.99512H2.10156C1.27656 1.99512 0.601562 2.67012 0.601562 3.49512V13.9951C0.601562 14.8201 1.27656 15.4951 2.10156 15.4951H6.60156V13.9951H2.10156V3.49512ZM7.35156 1.99512C7.76406 1.99512 8.10156 2.33262 8.10156 2.74512C8.10156 3.15762 7.76406 3.49512 7.35156 3.49512C6.93906 3.49512 6.60156 3.15762 6.60156 2.74512C6.60156 2.33262 6.93906 1.99512 7.35156 1.99512Z" fill="#27AE60"/>
<path d="M14.6641 8.93262C14.3566 8.62512 13.8466 8.62512 13.5391 8.93262L9.98406 12.4951L8.28906 10.8076C7.98156 10.5001 7.47906 10.5001 7.16406 10.8076C6.85656 11.1151 6.85656 11.6251 7.16406 11.9326L9.45156 14.2126C9.74406 14.5051 10.2166 14.5051 10.5091 14.2126L14.6566 10.0576C14.9716 9.75012 14.9716 9.24012 14.6641 8.93262Z" fill="#27AE60"/>
</svg>
