<svg width="18" height="12" viewBox="0 0 18 12" fill="none" xmlns="http://www.w3.org/2000/svg">
<path d="M9 1.8916C11.8425 1.8916 14.3775 3.4891 15.615 6.0166C14.3775 8.5441 11.8425 10.1416 9 10.1416C6.1575 10.1416 3.6225 8.5441 2.385 6.0166C3.6225 3.4891 6.1575 1.8916 9 1.8916ZM9 0.391602C5.25 0.391602 2.0475 2.7241 0.75 6.0166C2.0475 9.3091 5.25 11.6416 9 11.6416C12.75 11.6416 15.9525 9.3091 17.25 6.0166C15.9525 2.7241 12.75 0.391602 9 0.391602ZM9 4.1416C10.035 4.1416 10.875 4.9816 10.875 6.0166C10.875 7.0516 10.035 7.8916 9 7.8916C7.965 7.8916 7.125 7.0516 7.125 6.0166C7.125 4.9816 7.965 4.1416 9 4.1416ZM9 2.6416C7.14 2.6416 5.625 4.1566 5.625 6.0166C5.625 7.8766 7.14 9.3916 9 9.3916C10.86 9.3916 12.375 7.8766 12.375 6.0166C12.375 4.1566 10.86 2.6416 9 2.6416Z" fill="#828282"/>
</svg>
