<svg width="14" height="14" viewBox="0 0 14 14" fill="none" xmlns="http://www.w3.org/2000/svg">
<path d="M9.82634 4.02872C9.04634 3.24872 8.02634 2.85539 6.99967 2.85539V6.85539L4.17301 9.68205C5.73301 11.2421 8.26634 11.2421 9.83301 9.68205C11.393 8.12205 11.393 5.58872 9.82634 4.02872ZM6.99967 0.188721C3.31967 0.188721 0.333008 3.17539 0.333008 6.85539C0.333008 10.5354 3.31967 13.5221 6.99967 13.5221C10.6797 13.5221 13.6663 10.5354 13.6663 6.85539C13.6663 3.17539 10.6797 0.188721 6.99967 0.188721ZM6.99967 12.1887C4.05301 12.1887 1.66634 9.80205 1.66634 6.85539C1.66634 3.90872 4.05301 1.52205 6.99967 1.52205C9.94634 1.52205 12.333 3.90872 12.333 6.85539C12.333 9.80205 9.94634 12.1887 6.99967 12.1887Z" fill="#F2994A"/>
</svg>
