<svg width="15" height="15" viewBox="0 0 15 15" fill="none" xmlns="http://www.w3.org/2000/svg">
<path d="M14.9333 7.17578L13.3066 5.31578L13.5333 2.85578L11.1266 2.30911L9.8666 0.175781L7.59993 1.14911L5.33327 0.175781L4.07327 2.30245L1.6666 2.84245L1.89327 5.30911L0.266602 7.17578L1.89327 9.03578L1.6666 11.5024L4.07327 12.0491L5.33327 14.1758L7.59993 13.1958L9.8666 14.1691L11.1266 12.0424L13.5333 11.4958L13.3066 9.03578L14.9333 7.17578ZM5.85327 9.84912L4.2666 8.24911C4.0066 7.98911 4.0066 7.56911 4.2666 7.30911L4.31327 7.26245C4.57327 7.00245 4.99993 7.00245 5.25993 7.26245L6.33327 8.34245L9.7666 4.90245C10.0266 4.64245 10.4533 4.64245 10.7133 4.90245L10.7599 4.94911C11.0199 5.20911 11.0199 5.62911 10.7599 5.88911L6.81327 9.84912C6.53993 10.1091 6.11993 10.1091 5.85327 9.84912Z" fill="white"/>
</svg>
